<svg width="40" height="40" viewBox="0 0 40 40" fill="none" xmlns="http://www.w3.org/2000/svg">
<path fill-rule="evenodd" clip-rule="evenodd" d="M13.2196 13.2197C12.9268 13.5126 12.9268 13.9874 13.2196 14.2803L19.2301 20.2908L13.2196 26.3013C12.9268 26.5941 12.9268 27.069 13.2196 27.3619C13.5125 27.6548 13.9875 27.6548 14.2803 27.3619L20.2908 21.3514L26.3012 27.3618C26.594 27.6547 27.0689 27.6547 27.3618 27.3618C27.6547 27.069 27.6547 26.594 27.3618 26.3011L21.3513 20.2908L27.3617 14.2804C27.6547 13.9875 27.6547 13.5127 27.3617 13.2197C27.0689 12.9269 26.594 12.9269 26.3012 13.2197L20.2908 19.2301L14.2803 13.2197C13.9875 12.9268 13.5126 12.9268 13.2196 13.2197Z" fill="#FF9704"/>
</svg>
