<svg width="40" height="40" viewBox="0 0 40 40" fill="none" xmlns="http://www.w3.org/2000/svg">
<path fill-rule="evenodd" clip-rule="evenodd" d="M21.8182 11.9091C21.8182 12.9635 20.9635 13.8182 19.9091 13.8182C18.8547 13.8182 18 12.9635 18 11.9091C18 10.8547 18.8547 10 19.9091 10C20.9635 10 21.8182 10.8547 21.8182 11.9091ZM21.8182 19.7272C21.8182 20.7816 20.9635 21.6363 19.9091 21.6363C18.8547 21.6363 18 20.7816 18 19.7272C18 18.6728 18.8547 17.8181 19.9091 17.8181C20.9635 17.8181 21.8182 18.6728 21.8182 19.7272ZM19.9091 29.4544C20.9635 29.4544 21.8182 28.5997 21.8182 27.5453C21.8182 26.491 20.9635 25.6362 19.9091 25.6362C18.8547 25.6362 18 26.491 18 27.5453C18 28.5997 18.8547 29.4544 19.9091 29.4544Z" fill="white"/>
</svg>
