<svg width="35" height="33" viewBox="0 0 35 33" fill="none" xmlns="http://www.w3.org/2000/svg">
<path fill-rule="evenodd" clip-rule="evenodd" d="M24.8445 9.12104C24.2602 7.87201 22.7741 7.33309 21.5251 7.91732C20.7026 8.30202 20.1881 9.07777 20.0993 9.91938L15.8816 5.70168C14.9066 4.72665 13.3257 4.72665 12.3507 5.70168C12.1871 5.86526 12.051 6.04588 11.9423 6.23783C11.0283 5.8381 9.92366 6.01225 9.17563 6.76029C8.42757 7.50834 8.25343 8.61299 8.6532 9.52707C8.4613 9.63574 8.28073 9.77184 8.1172 9.93537C7.14217 10.9104 7.14216 12.4913 8.1172 13.4663L8.50334 13.8524C8.36693 13.943 8.23746 14.0484 8.1172 14.1687C7.14217 15.1437 7.14216 16.7246 8.1172 17.6996L14.4673 24.0497C14.5297 24.1121 14.5948 24.1707 14.6623 24.2254C14.7697 24.3456 14.8812 24.4635 14.9966 24.5789C15.1037 24.686 15.2129 24.7896 15.324 24.8898C15.3877 24.9645 15.455 25.0372 15.5257 25.1078C17.1675 26.7496 18.9379 27.9821 20.831 28.2976C22.8056 28.6267 24.7032 27.9281 26.4651 26.1662C27.9387 24.6926 28.7734 23.2321 29.1044 21.781C29.4287 20.3595 29.249 19.0365 28.8402 17.8428C28.8018 17.6433 28.7385 17.4461 28.6494 17.2556L27.7436 17.6793L28.6494 17.2556L24.8445 9.12104ZM22.3725 9.72894C22.621 9.6127 22.9166 9.71992 23.0329 9.96842L26.8378 18.103C26.8594 18.1493 26.8729 18.1955 26.8797 18.241C26.8891 18.3042 26.9045 18.3665 26.9258 18.4268C27.2609 19.3764 27.3828 20.3352 27.1545 21.3362C26.9255 22.3401 26.3229 23.4799 25.0508 24.752C23.6377 26.1652 22.3602 26.5249 21.1598 26.3248C19.8778 26.1112 18.4732 25.2269 16.9399 23.6936C16.8952 23.649 16.8559 23.6053 16.8214 23.5627C16.7868 23.5201 16.7488 23.4804 16.7077 23.444C16.6068 23.3548 16.5078 23.2616 16.4108 23.1647C16.3034 23.0573 16.2007 22.9473 16.1027 22.8351C16.0543 22.7796 15.9999 22.7297 15.9405 22.6862C15.9204 22.6714 15.9006 22.6546 15.8815 22.6355L9.53142 16.2854C9.33743 16.0914 9.33743 15.7769 9.53142 15.5829C9.72429 15.39 10.0364 15.3889 10.2305 15.5796C10.4923 15.8367 10.8598 15.9205 11.1905 15.8321L13.7627 18.4043C13.9579 18.5995 14.2745 18.5995 14.4698 18.4043C14.665 18.209 14.665 17.8924 14.4698 17.6972L11.8974 15.1248C11.9864 14.7911 11.8999 14.4206 11.6383 14.159L9.53142 12.0521C9.33743 11.8581 9.33743 11.5436 9.53142 11.3496C9.7254 11.1556 10.0399 11.1556 10.2339 11.3496L14.4673 15.583C14.7338 15.8495 15.1134 15.9341 15.4517 15.8369C15.6432 15.9487 15.8931 15.9225 16.0572 15.7584C16.2214 15.5942 16.2475 15.3442 16.1356 15.1527C16.2327 14.8145 16.148 14.4351 15.8816 14.1687L10.5898 8.87699C10.3959 8.68301 10.3958 8.36849 10.5898 8.1745C10.7838 7.98051 11.0983 7.98051 11.2923 8.1745L17.2212 14.1033C17.461 14.3432 17.806 14.4451 18.1376 14.3741L18.1378 14.374C18.4961 14.2973 18.7837 14.0309 18.8875 13.6795C18.9913 13.3281 18.8947 12.9482 18.6356 12.6891L13.7649 7.81839C13.5709 7.6244 13.5709 7.30988 13.7649 7.1159C13.9589 6.92191 14.2734 6.92191 14.4674 7.1159L21.9687 14.6172C22.312 14.9605 22.8523 15.0076 23.2499 14.7289C23.6474 14.4502 23.7873 13.9261 23.5816 13.4864L22.133 10.3893C22.0167 10.1408 22.124 9.84517 22.3725 9.72894Z" fill="#FF9704"/>
<path fill-rule="evenodd" clip-rule="evenodd" d="M18.7733 9.88187C19.5221 9.53164 20.413 9.85471 20.7632 10.6035L24.5681 18.738C24.6313 18.873 24.6725 19.0125 24.6933 19.1527C25.4572 21.3172 25.3282 23.7721 22.5825 26.5178C19.4074 29.6929 16.2324 28.6345 13.0573 25.4595C12.9892 25.3914 12.9267 25.3221 12.8695 25.2517C12.7534 25.1489 12.6396 25.0419 12.5282 24.9305C12.4049 24.8072 12.2868 24.6807 12.174 24.5515C12.1128 24.5067 12.0542 24.4567 11.999 24.4014L5.64884 18.0513C5.06433 17.4667 5.06433 16.5191 5.64884 15.9345C6.23013 15.3533 7.1706 15.3501 7.75585 15.9249L5.64884 13.8179C5.06433 13.2334 5.06433 12.2857 5.64884 11.7012C6.23335 11.1167 7.18104 11.1167 7.76555 11.7012L11.9989 15.9346L11.999 15.9346L6.70726 10.6428C6.12275 10.0583 6.12275 9.11065 6.70726 8.52613C7.29178 7.94162 8.23946 7.94162 8.82397 8.52613L14.7528 14.455L14.753 14.4549L9.88235 9.58423C9.29784 8.99972 9.29784 8.05204 9.88235 7.46753C10.4669 6.88302 11.4145 6.88302 11.9991 7.46753L19.5003 14.9688L18.0517 11.8718C17.7015 11.123 18.0245 10.2321 18.7733 9.88187Z" fill="white"/>
<path fill-rule="evenodd" clip-rule="evenodd" d="M21.6688 10.1801C21.0846 8.9311 19.5984 8.39217 18.3494 8.9764C17.527 9.3611 17.0124 10.1369 16.9237 10.9785L12.706 6.76076C11.7309 5.78573 10.1501 5.78573 9.17505 6.76076C9.01148 6.92434 8.87535 7.10496 8.76666 7.29691C7.8526 6.89718 6.748 7.07133 5.99997 7.81937C5.25191 8.56742 5.07777 9.67207 5.47755 10.5861C5.28565 10.6948 5.10508 10.8309 4.94155 10.9945C3.96651 11.9695 3.96651 13.5503 4.94155 14.5254L5.32768 14.9115C5.19127 15.0021 5.0618 15.1075 4.94155 15.2278C3.96651 16.2028 3.96651 17.7837 4.94155 18.7587L11.2917 25.1088C11.354 25.1712 11.4191 25.2298 11.4866 25.2845C11.5941 25.4046 11.7055 25.5225 11.8209 25.638C11.9355 25.7525 12.0524 25.8631 12.1717 25.9698C12.2236 26.0315 12.278 26.092 12.3347 26.1512C14.6845 28.6066 19.2696 30.4376 23.2056 27.3001C24.9305 25.9252 25.8412 24.4208 26.1367 22.8612C26.4247 21.3416 26.1047 19.8949 25.5994 18.6405C25.5655 18.5302 25.5236 18.4213 25.4737 18.3147L21.6688 10.1801ZM19.1968 10.788C19.4453 10.6718 19.741 10.779 19.8572 11.0275L23.6621 19.162C23.6744 19.1884 23.684 19.2145 23.6913 19.2403C23.7016 19.2771 23.714 19.3133 23.7284 19.3487C24.1603 20.407 24.3663 21.4621 24.1717 22.4888C23.9811 23.4948 23.3816 24.6022 21.959 25.7362C19.1472 27.9775 15.732 26.8085 13.7796 24.7684C13.7409 24.7279 13.7062 24.6882 13.6751 24.6493C13.6384 24.6034 13.5977 24.5608 13.5535 24.522C13.4451 24.427 13.339 24.3276 13.2351 24.2238C13.1277 24.1163 13.025 24.0064 12.927 23.8941C12.8786 23.8387 12.8242 23.7888 12.7649 23.7453C12.7447 23.7305 12.725 23.7137 12.7059 23.6946L6.35576 17.3445C6.16177 17.1505 6.16177 16.836 6.35576 16.642C6.54863 16.4491 6.86078 16.448 7.05488 16.6386C7.05834 16.642 7.06182 16.6454 7.06532 16.6488L10.2335 19.8169C10.624 20.2074 11.2572 20.2074 11.6477 19.8169C12.0382 19.4264 12.0382 18.7932 11.6477 18.4027L7.41426 14.1693C7.40866 14.1637 7.40301 14.1581 7.3973 14.1527L6.35576 13.1112C6.16177 12.9172 6.16177 12.6027 6.35576 12.4087C6.54975 12.2147 6.86426 12.2147 7.05825 12.4087L11.2917 16.6421C11.2978 16.6483 11.3041 16.6544 11.3104 16.6604L11.8211 17.171C12.2116 17.5615 12.8448 17.5615 13.2353 17.171C13.6258 16.7805 13.6258 16.1473 13.2353 15.7568L8.47269 10.9942L8.45573 10.9776L7.41418 9.93607C7.22019 9.74209 7.22019 9.42757 7.41418 9.23358C7.60817 9.03959 7.92269 9.03959 8.11668 9.23358L14.0455 15.1624C14.2851 15.402 14.6296 15.5039 14.9609 15.4334L14.9611 15.4333C15.3196 15.357 15.6077 15.0906 15.7117 14.7391C15.8158 14.3876 15.7192 14.0074 15.46 13.7482L15.3641 13.6523L15.352 13.64L10.5808 8.86877C10.3953 8.67419 10.3982 8.36609 10.5893 8.17498C10.7833 7.98099 11.0978 7.98099 11.2918 8.17498L18.793 15.6762C19.1363 16.0196 19.6766 16.0667 20.0742 15.7879C20.4717 15.5092 20.6116 14.9852 20.4059 14.5454L18.9573 11.4484C18.8411 11.1999 18.9483 10.9043 19.1968 10.788Z" fill="#FF9704"/>
</svg>
