<svg width="40" height="40" viewBox="0 0 40 40" fill="none" xmlns="http://www.w3.org/2000/svg">
<path fill-rule="evenodd" clip-rule="evenodd" d="M27.8445 13.121C27.2602 11.872 25.7741 11.3331 24.5251 11.9173C23.7026 12.302 23.1881 13.0778 23.0993 13.9194L18.8816 9.70168C17.9066 8.72665 16.3257 8.72665 15.3507 9.70168C15.1871 9.86526 15.051 10.0459 14.9423 10.2378C14.0282 9.8381 12.9236 10.0123 12.1756 10.7603C11.4276 11.5083 11.2534 12.613 11.6532 13.5271C11.4613 13.6357 11.2807 13.7718 11.1172 13.9354C10.1422 14.9104 10.1421 16.4913 11.1172 17.4663L11.5033 17.8524C11.3669 17.943 11.2374 18.0484 11.1172 18.1687C10.1422 19.1437 10.1421 20.7246 11.1172 21.6996L17.4673 28.0497C17.5297 28.1121 17.5948 28.1707 17.6623 28.2254C17.7697 28.3456 17.8811 28.4635 17.9966 28.5789C18.1036 28.686 18.2128 28.7896 18.324 28.8898C18.3877 28.9645 18.455 29.0372 18.5257 29.1078C20.1674 30.7496 21.9378 31.9821 23.831 32.2976C25.8056 32.6267 27.7032 31.9281 29.465 30.1662C30.9386 28.6926 31.7734 27.2321 32.1044 25.781C32.4286 24.3595 32.249 23.0365 31.8402 21.8428C31.8018 21.6433 31.7385 21.4461 31.6494 21.2556L30.7436 21.6793L31.6494 21.2556L27.8445 13.121ZM25.3724 13.7289C25.6209 13.6127 25.9166 13.7199 26.0329 13.9684L29.8378 22.103C29.8594 22.1493 29.8729 22.1955 29.8796 22.241C29.889 22.3042 29.9045 22.3665 29.9258 22.4268C30.2609 23.3764 30.3828 24.3352 30.1545 25.3362C29.9255 26.3401 29.3229 27.4799 28.0508 28.752C26.6377 30.1652 25.3602 30.5249 24.1597 30.3248C22.8778 30.1112 21.4731 29.2269 19.9399 27.6936C19.8952 27.649 19.8559 27.6053 19.8214 27.5627C19.7868 27.5201 19.7488 27.4804 19.7077 27.444C19.6068 27.3548 19.5077 27.2616 19.4108 27.1647C19.3034 27.0573 19.2006 26.9473 19.1026 26.8351C19.0542 26.7796 18.9999 26.7297 18.9405 26.6862C18.9203 26.6714 18.9006 26.6546 18.8815 26.6355L12.5314 20.2854C12.3374 20.0914 12.3374 19.7769 12.5314 19.5829C12.7243 19.39 13.0364 19.3889 13.2305 19.5796C13.4923 19.8367 13.8598 19.9205 14.1905 19.8321L16.7627 22.4043C16.9579 22.5995 17.2745 22.5995 17.4698 22.4043C17.665 22.209 17.665 21.8924 17.4698 21.6972L14.8974 19.1248C14.9864 18.7911 14.8999 18.4206 14.6383 18.159L12.5314 16.0521C12.3374 15.8581 12.3374 15.5436 12.5314 15.3496C12.7254 15.1556 13.0399 15.1556 13.2339 15.3496L17.4673 19.583C17.7338 19.8495 18.1134 19.9341 18.4517 19.8369C18.6432 19.9487 18.893 19.9225 19.0572 19.7584C19.2214 19.5942 19.2475 19.3442 19.1355 19.1527C19.2326 18.8145 19.148 18.4351 18.8816 18.1687L13.5898 12.877C13.3958 12.683 13.3958 12.3685 13.5898 12.1745C13.7838 11.9805 14.0983 11.9805 14.2923 12.1745L20.2212 18.1033C20.461 18.3432 20.806 18.4451 21.1376 18.3741L21.1378 18.374C21.4961 18.2973 21.7837 18.0309 21.8875 17.6795C21.9913 17.3281 21.8947 16.9482 21.6356 16.6891L16.7649 11.8184C16.5709 11.6244 16.5709 11.3099 16.7649 11.1159C16.9589 10.9219 17.2734 10.9219 17.4674 11.1159L24.9687 18.6172C25.312 18.9605 25.8523 19.0076 26.2498 18.7289C26.6474 18.4502 26.7873 17.9261 26.5816 17.4864L25.133 14.3893C25.0167 14.1408 25.1239 13.8452 25.3724 13.7289Z" fill="#FF9704"/>
<path fill-rule="evenodd" clip-rule="evenodd" d="M21.7733 13.8819C22.522 13.5316 23.4129 13.8547 23.7632 14.6035L27.5681 22.738C27.6312 22.873 27.6725 23.0125 27.6933 23.1527C28.4572 25.3172 28.3281 27.7721 25.5825 30.5178C22.4074 33.6929 19.2323 32.6345 16.0573 29.4595C15.9892 29.3914 15.9267 29.3221 15.8695 29.2517C15.7534 29.1489 15.6395 29.0419 15.5282 28.9305C15.4048 28.8072 15.2867 28.6807 15.1739 28.5515C15.1128 28.5067 15.0542 28.4567 14.9989 28.4014L8.64881 22.0513C8.0643 21.4667 8.0643 20.5191 8.64881 19.9345C9.2301 19.3533 10.1706 19.3501 10.7558 19.9249L8.64881 17.8179C8.0643 17.2334 8.0643 16.2857 8.64881 15.7012C9.23332 15.1167 10.181 15.1167 10.7655 15.7012L14.9989 19.9346L14.999 19.9346L9.70723 14.6428C9.12272 14.0583 9.12272 13.1106 9.70723 12.5261C10.2917 11.9416 11.2394 11.9416 11.8239 12.5261L17.7528 18.455L17.753 18.4549L12.8823 13.5842C12.2978 12.9997 12.2978 12.052 12.8823 11.4675C13.4668 10.883 14.4145 10.883 14.999 11.4675L22.5003 18.9688L21.0517 15.8718C20.7014 15.123 21.0245 14.2321 21.7733 13.8819Z" fill="white"/>
<path fill-rule="evenodd" clip-rule="evenodd" d="M24.6688 14.1801C24.0846 12.9311 22.5984 12.3922 21.3494 12.9764C20.527 13.3611 20.0124 14.1369 19.9237 14.9785L15.706 10.7608C14.7309 9.78573 13.1501 9.78573 12.175 10.7608C12.0115 10.9243 11.8753 11.105 11.7666 11.2969C10.8526 10.8972 9.74799 11.0713 8.99995 11.8194C8.2519 12.5674 8.07775 13.6721 8.47753 14.5861C8.28563 14.6948 8.10506 14.8309 7.94153 14.9945C6.9665 15.9695 6.96649 17.5503 7.94153 18.5254L8.32767 18.9115C8.19126 19.0021 8.06179 19.1075 7.94153 19.2278C6.9665 20.2028 6.9665 21.7837 7.94153 22.7587L14.2917 29.1088C14.354 29.1712 14.4191 29.2298 14.4866 29.2845C14.594 29.4046 14.7055 29.5225 14.8209 29.638C14.9355 29.7525 15.0524 29.8631 15.1716 29.9698C15.2236 30.0315 15.278 30.092 15.3346 30.1512C17.6845 32.6066 22.2696 34.4376 26.2056 31.3001C27.9305 29.9252 28.8412 28.4208 29.1367 26.8612C29.4247 25.3416 29.1047 23.8949 28.5994 22.6405C28.5655 22.5302 28.5236 22.4213 28.4737 22.3147L24.6688 14.1801ZM22.1968 14.788C22.4453 14.6718 22.741 14.779 22.8572 15.0275L26.6621 23.162C26.6744 23.1884 26.684 23.2145 26.6912 23.2403C26.7015 23.2771 26.7139 23.3133 26.7284 23.3487C27.1603 24.407 27.3662 25.4621 27.1717 26.4888C26.981 27.4948 26.3816 28.6022 24.959 29.7362C22.1472 31.9775 18.732 30.8085 16.7796 28.7684C16.7408 28.7279 16.7062 28.6882 16.6751 28.6493C16.6384 28.6034 16.5977 28.5608 16.5534 28.522C16.4451 28.427 16.3389 28.3276 16.2351 28.2238C16.1277 28.1163 16.025 28.0064 15.927 27.8941C15.8786 27.8387 15.8242 27.7888 15.7649 27.7453C15.7447 27.7305 15.725 27.7137 15.7059 27.6946L9.35575 21.3445C9.16176 21.1505 9.16176 20.836 9.35575 20.642C9.54862 20.4491 9.86077 20.448 10.0549 20.6386C10.0583 20.642 10.0618 20.6454 10.0653 20.6488L13.2334 23.8169C13.624 24.2074 14.2571 24.2074 14.6477 23.8169C15.0382 23.4264 15.0382 22.7932 14.6477 22.4027L10.4142 18.1693C10.4086 18.1637 10.403 18.1581 10.3973 18.1527L9.35574 17.1112C9.16176 16.9172 9.16176 16.6027 9.35574 16.4087C9.54973 16.2147 9.86425 16.2147 10.0582 16.4087L14.2916 20.6421C14.2978 20.6483 14.3041 20.6544 14.3104 20.6604L14.821 21.171C15.2116 21.5615 15.8447 21.5615 16.2353 21.171C16.6258 20.7805 16.6258 20.1473 16.2353 19.7568L11.4727 14.9942L11.4557 14.9776L10.4142 13.9361C10.2202 13.7421 10.2202 13.4276 10.4142 13.2336C10.6082 13.0396 10.9227 13.0396 11.1167 13.2336L17.0455 19.1624C17.285 19.402 17.6295 19.5039 17.9609 19.4334L17.9611 19.4333C18.3196 19.357 18.6077 19.0906 18.7117 18.7391C18.8158 18.3876 18.7192 18.0074 18.4599 17.7482L18.3641 17.6523L18.352 17.64L13.5808 12.8688C13.3953 12.6742 13.3981 12.3661 13.5893 12.175C13.7832 11.981 14.0978 11.981 14.2917 12.175L21.793 19.6762C22.1363 20.0196 22.6766 20.0667 23.0742 19.7879C23.4717 19.5092 23.6116 18.9852 23.4059 18.5454L21.9573 15.4484C21.8411 15.1999 21.9483 14.9043 22.1968 14.788Z" fill="#FF9704"/>
</svg>
