<svg width="40" height="40" viewBox="0 0 40 40" fill="none" xmlns="http://www.w3.org/2000/svg">
<rect x="14.8289" y="23.7427" width="12.6057" height="2" transform="rotate(-45 14.8289 23.7427)" fill="white"/>
<path fill-rule="evenodd" clip-rule="evenodd" d="M13.4506 18.5494L10.9079 21.0921C8.74964 23.2504 8.74964 26.7496 10.9079 28.9079C13.0662 31.0662 16.5655 31.0662 18.7238 28.9079L21.2664 26.3653L19.8522 24.9511L17.3096 27.4937C15.9323 28.871 13.6994 28.871 12.3221 27.4937C10.9449 26.1165 10.9449 23.8835 12.3221 22.5063L14.8648 19.9636L13.4506 18.5494ZM24.9512 19.8521L27.4937 17.3096C28.871 15.9323 28.871 13.6994 27.4937 12.3222C26.1165 10.9449 23.8835 10.9449 22.5063 12.3222L19.9638 14.8647L18.5496 13.4504L21.0921 10.9079C23.2504 8.74965 26.7496 8.74964 28.9079 10.9079C31.0662 13.0662 31.0662 16.5655 28.9079 18.7238L26.3654 21.2663L24.9512 19.8521Z" fill="white"/>
</svg>
