<svg width="40" height="40" viewBox="0 0 40 40" fill="none" xmlns="http://www.w3.org/2000/svg">
<path fill-rule="evenodd" clip-rule="evenodd" d="M26.1169 14.6513C25.6909 13.7404 24.6071 13.3475 23.6963 13.7735C23.0966 14.054 22.7214 14.6197 22.6566 15.2334L19.581 12.1578C18.87 11.4468 17.7172 11.4468 17.0062 12.1578C16.8869 12.2771 16.7876 12.4088 16.7084 12.5488C16.0418 12.2573 15.2363 12.3843 14.6908 12.9297C14.1453 13.4752 14.0184 14.2808 14.3099 14.9473C14.1699 15.0266 14.0383 15.1258 13.919 15.2451C13.208 15.9561 13.208 17.1089 13.919 17.8199L14.2006 18.1015C14.1011 18.1676 14.0067 18.2444 13.919 18.3321C13.208 19.0431 13.208 20.1959 13.919 20.9069L18.5497 25.5376C18.5951 25.5831 18.6426 25.6258 18.6918 25.6657C18.7702 25.7533 18.8514 25.8393 18.9356 25.9235C19.0137 26.0015 19.0933 26.0771 19.1744 26.1502C19.2208 26.2046 19.2699 26.2576 19.3214 26.3092C20.5187 27.5064 21.8097 28.4051 23.1902 28.6352C24.6301 28.8752 26.0139 28.3658 27.2987 27.081C28.3733 26.0064 28.982 24.9413 29.2234 23.8832C29.4598 22.8466 29.3288 21.8818 29.0307 21.0114C29.0027 20.8659 28.9565 20.7221 28.8915 20.5831L28.231 20.8921L28.8915 20.5831L26.1169 14.6513ZM24.3143 15.0946C24.4955 15.0098 24.7111 15.088 24.7958 15.2692L27.5705 21.2011C27.5863 21.2348 27.5961 21.2686 27.601 21.3017C27.6079 21.3478 27.6191 21.3932 27.6347 21.4372C27.879 22.1297 27.9679 22.8289 27.8014 23.5588C27.6345 24.2909 27.195 25.122 26.2674 26.0497C25.2369 27.0802 24.3053 27.3425 23.4299 27.1966C22.4951 27.0408 21.4708 26.396 20.3527 25.2779C20.3201 25.2453 20.2915 25.2135 20.2663 25.1824C20.2411 25.1514 20.2133 25.1224 20.1834 25.0959C20.1098 25.0308 20.0376 24.9629 19.9669 24.8922C19.8885 24.8139 19.8136 24.7337 19.7422 24.6518C19.7069 24.6114 19.6672 24.575 19.624 24.5433C19.6092 24.5325 19.5949 24.5202 19.5809 24.5063L14.9503 19.8757C14.8088 19.7342 14.8088 19.5049 14.9503 19.3634C15.0909 19.2228 15.3186 19.222 15.4601 19.361C15.651 19.5484 15.919 19.6096 16.1601 19.5451L18.0358 21.4208C18.1782 21.5632 18.4091 21.5632 18.5515 21.4208C18.6938 21.2784 18.6938 21.0475 18.5515 20.9052L16.6756 19.0293C16.7405 18.786 16.6775 18.5158 16.4867 18.3251L14.9503 16.7886C14.8088 16.6472 14.8088 16.4178 14.9503 16.2764C15.0918 16.1349 15.3211 16.1349 15.4626 16.2764L18.5496 19.3635C18.744 19.5578 19.0208 19.6195 19.2675 19.5486C19.4071 19.6301 19.5893 19.611 19.709 19.4913C19.8288 19.3716 19.8478 19.1892 19.7661 19.0495C19.7848 18.9845 19.7945 18.9166 19.7945 18.8478C19.7945 18.6544 19.7177 18.4689 19.581 18.3321L15.7221 14.4733C15.5807 14.3318 15.5807 14.1025 15.7221 13.961C15.8636 13.8196 16.0929 13.8196 16.2344 13.961L20.5578 18.2845C20.7327 18.4593 20.9843 18.5337 21.2261 18.4819L21.2263 18.4819C21.4875 18.4259 21.6973 18.2316 21.773 17.9754C21.8487 17.7192 21.7782 17.4421 21.5893 17.2532L18.0375 13.7013C17.896 13.5599 17.896 13.3305 18.0375 13.1891C18.1789 13.0476 18.4083 13.0476 18.5497 13.1891L24.0198 18.6592C24.2702 18.9095 24.6642 18.9439 24.9541 18.7406C25.244 18.5374 25.346 18.1553 25.196 17.8346L24.1396 15.5761C24.0549 15.3949 24.133 15.1793 24.3143 15.0946Z" fill="#FF9704"/>
<path fill-rule="evenodd" clip-rule="evenodd" d="M21.6902 15.2058C22.2362 14.9504 22.8859 15.186 23.1413 15.732L25.9159 21.6639C25.9619 21.7623 25.992 21.8641 26.0072 21.9663C26.5642 23.5447 26.4701 25.3349 24.4679 27.3371C22.1526 29.6525 19.8373 28.8807 17.5219 26.5654C17.4723 26.5157 17.4267 26.4652 17.385 26.4138C17.3003 26.3389 17.2173 26.2608 17.1361 26.1796C17.0462 26.0897 16.9601 25.9975 16.8778 25.9033C16.8332 25.8706 16.7905 25.8341 16.7502 25.7938L12.1195 21.1631C11.6933 20.7369 11.6933 20.0458 12.1195 19.6196C12.5434 19.1957 13.2292 19.1933 13.656 19.6126L12.1195 18.0761C11.6933 17.6498 11.6933 16.9588 12.1195 16.5325C12.5458 16.1063 13.2368 16.1063 13.6631 16.5325L16.7502 19.6196L16.7502 19.6196L12.8914 15.7607C12.4651 15.3345 12.4651 14.6434 12.8914 14.2172C13.3176 13.791 14.0087 13.791 14.4349 14.2172L18.7584 18.5406L18.7585 18.5406L15.2067 14.9888C14.7805 14.5625 14.7805 13.8715 15.2067 13.4452C15.6329 13.019 16.324 13.019 16.7502 13.4452L22.2203 18.9153L21.164 16.6569C20.9086 16.1109 21.1442 15.4612 21.6902 15.2058Z" fill="white"/>
<path fill-rule="evenodd" clip-rule="evenodd" d="M23.8016 15.4237C23.3756 14.5129 22.2919 14.1199 21.3811 14.5459C20.7813 14.8265 20.4061 15.3922 20.3414 16.0059L17.2657 12.9303C16.5547 12.2192 15.4019 12.2192 14.6909 12.9303C14.5716 13.0495 14.4724 13.1812 14.3931 13.3212C13.7265 13.0297 12.921 13.1567 12.3756 13.7022C11.8301 14.2477 11.7031 15.0532 11.9946 15.7198C11.8547 15.7991 11.723 15.8983 11.6037 16.0176C10.8927 16.7286 10.8927 17.8814 11.6037 18.5924L11.8853 18.874C11.7858 18.94 11.6914 19.0169 11.6037 19.1046C10.8927 19.8156 10.8927 20.9684 11.6037 21.6794L16.2344 26.3101C16.2799 26.3555 16.3273 26.3983 16.3766 26.4381C16.4549 26.5258 16.5362 26.6117 16.6203 26.6959C16.7039 26.7795 16.7892 26.8601 16.8761 26.9379C16.914 26.9829 16.9536 27.027 16.995 27.0702C18.7085 28.8607 22.0521 30.1959 24.9223 27.908C26.1801 26.9054 26.8442 25.8083 27.0597 24.671C27.2697 23.5629 27.0364 22.5079 26.6679 21.5933C26.6432 21.5128 26.6126 21.4334 26.5763 21.3556L23.8016 15.4237ZM21.999 15.867C22.1802 15.7823 22.3958 15.8604 22.4806 16.0417L25.2552 21.9735C25.2642 21.9927 25.2712 22.0118 25.2764 22.0306C25.2839 22.0574 25.293 22.0838 25.3035 22.1096C25.6185 22.8814 25.7687 23.6508 25.6268 24.3995C25.4878 25.1331 25.0506 25.9406 24.0132 26.7676C21.9628 28.402 19.4724 27.5495 18.0486 26.0618C18.0204 26.0323 17.9951 26.0033 17.9724 25.975C17.9457 25.9415 17.916 25.9104 17.8837 25.8821C17.8047 25.8128 17.7273 25.7404 17.6516 25.6646C17.5733 25.5863 17.4984 25.5061 17.4269 25.4243C17.3916 25.3839 17.352 25.3475 17.3087 25.3157C17.294 25.305 17.2796 25.2927 17.2657 25.2788L12.635 20.6481C12.4936 20.5067 12.4936 20.2773 12.635 20.1359C12.7757 19.9952 13.0033 19.9944 13.1448 20.1334C13.1474 20.1359 13.1499 20.1384 13.1524 20.1408L15.4627 22.4511C15.7475 22.7359 16.2092 22.7359 16.494 22.4511C16.7788 22.1663 16.7788 21.7046 16.494 21.4198L13.4069 18.3327C13.4028 18.3286 13.3987 18.3246 13.3945 18.3206L12.635 17.5611C12.4936 17.4196 12.4936 17.1903 12.635 17.0488C12.7765 16.9074 13.0058 16.9074 13.1473 17.0488L16.2344 20.1359C16.237 20.1385 16.2396 20.1411 16.2423 20.1437C16.2443 20.1456 16.2462 20.1475 16.2482 20.1494L16.6204 20.5216C16.9052 20.8064 17.3669 20.8064 17.6517 20.5216C17.9365 20.2368 17.9365 19.7751 17.6517 19.4903L14.1787 16.0174L14.1664 16.0053L13.4068 15.2458C13.2654 15.1043 13.2654 14.8749 13.4068 14.7335C13.5483 14.592 13.7777 14.592 13.9191 14.7335L18.2426 19.0569C18.4172 19.2316 18.6685 19.306 18.9101 19.2545L18.9102 19.2545C19.1717 19.1988 19.3817 19.0046 19.4576 18.7482C19.5335 18.4919 19.463 18.2146 19.274 18.0256L19.2041 17.9557L19.1953 17.9467L15.716 14.4675C15.5808 14.3256 15.5828 14.1009 15.7222 13.9615C15.8636 13.8201 16.093 13.8201 16.2345 13.9615L21.7045 19.4316C21.9549 19.682 22.3489 19.7163 22.6388 19.5131C22.9287 19.3098 23.0307 18.9277 22.8807 18.607L21.8243 16.3486C21.7396 16.1674 21.8178 15.9518 21.999 15.867Z" fill="#FF9704"/>
</svg>
