<svg xmlns="http://www.w3.org/2000/svg" width="32" height="33" viewBox="0 0 32 33" fill="none">
  <path fill-rule="evenodd" clip-rule="evenodd" d="M10.6989 14.3999C12.5046 13.8035 14.0808 14.7044 15.1933 15.6326C15.4901 15.8803 15.53 16.3217 15.2823 16.6185C15.0346 16.9154 14.5932 16.9552 14.2964 16.7076C13.2801 15.8596 12.2243 15.3705 11.138 15.7293C10.5393 15.927 9.99847 16.4112 9.846 16.8886C9.81268 16.9929 9.77674 17.2212 9.78376 17.4632C9.78712 17.5791 9.79992 17.676 9.81761 17.7466C9.82626 17.7812 9.834 17.8011 9.8379 17.8102C9.84137 17.8138 9.84569 17.8181 9.85105 17.8232C9.86705 17.8387 9.8856 17.8554 9.91307 17.88C9.91614 17.8827 9.91973 17.8859 9.92378 17.8895C9.96661 17.9274 10.0607 18.0108 10.1334 18.1026C10.1951 18.1803 10.4371 18.5065 10.2675 18.9216C10.1278 19.2634 9.80655 19.3836 9.69986 19.4216C9.03771 19.6579 8.70182 20.2241 8.70182 20.9733C8.70182 21.6331 8.71616 21.9241 8.96625 22.2627C9.05928 22.3887 9.22113 22.4838 9.54019 22.5328C9.80465 22.5733 10.0792 22.5706 10.394 22.5674C10.4822 22.5666 10.5735 22.5656 10.6687 22.5656C11.0532 22.5656 11.325 22.5328 11.5657 22.4666C11.7952 22.4035 12.026 22.302 12.3213 22.1309C12.3218 22.1305 12.3222 22.1301 12.3227 22.1297C12.3442 22.1104 12.3828 22.0758 12.4218 22.0439C12.462 22.011 12.5411 21.9485 12.6403 21.8989C12.6909 21.8737 12.7759 21.8368 12.8848 21.82C12.9977 21.8025 13.17 21.8023 13.3483 21.8958C13.5511 22.0021 13.6828 22.1636 13.7582 22.2701C13.8402 22.3858 13.9058 22.5096 13.9552 22.6094C13.9895 22.6788 14.0253 22.7565 14.0541 22.8189C14.0652 22.843 14.0753 22.8648 14.0838 22.883C14.1014 22.9206 14.1152 22.9491 14.1267 22.9711C14.1367 22.9903 14.1414 22.9979 14.1414 22.9979C14.1414 22.9979 14.1411 22.9975 14.1407 22.9968C14.4288 23.4282 14.6975 23.6792 14.9913 23.8408C15.2908 24.0054 15.6724 24.1081 16.2367 24.1532C17.2398 24.2335 18.0339 24.2715 18.7329 23.9432C18.9237 23.8536 19.0146 23.7585 19.1018 23.5402C19.1048 23.5276 19.1086 23.511 19.1139 23.4881L19.115 23.4834C19.1275 23.4288 19.1455 23.3499 19.1668 23.2703C19.1874 23.1935 19.2185 23.0867 19.2621 22.9866C19.2834 22.9379 19.3192 22.8633 19.3747 22.7877C19.4182 22.7285 19.5464 22.5667 19.7821 22.4988C20.0084 22.4335 20.2013 22.4888 20.2861 22.5182C20.3859 22.5528 20.4707 22.6003 20.5312 22.6378C20.6535 22.7136 20.773 22.81 20.8656 22.8885C20.9426 22.9537 21.02 23.023 21.0813 23.078C21.0958 23.091 21.1094 23.1032 21.1219 23.1143C21.1759 23.1625 21.1996 23.1819 21.2035 23.1857C21.7332 23.4998 22.4128 23.6162 23.1765 23.673C24.1911 23.7486 25.2324 23.742 26.2825 23.7226C26.7982 23.7132 27.0683 23.651 27.2495 23.4821L27.2496 23.482C27.2524 23.4794 27.2585 23.4737 27.267 23.4518C27.2773 23.425 27.2892 23.3783 27.296 23.3005C27.3028 23.222 27.303 23.1314 27.2998 23.0179C27.299 22.9903 27.2979 22.9586 27.2967 22.9246C27.2936 22.8382 27.29 22.7369 27.29 22.6486C27.29 22.262 27.6034 21.9486 27.99 21.9486C28.3766 21.9486 28.69 22.262 28.69 22.6486C28.69 22.6792 28.6916 22.7276 28.6936 22.7872C28.6994 22.9579 28.7082 23.221 28.6908 23.4217C28.6631 23.7402 28.5657 24.169 28.2043 24.506C27.6017 25.0679 26.8335 25.1127 26.3082 25.1224C25.2539 25.1418 24.1569 25.1499 23.0726 25.0692C22.2638 25.009 21.2894 24.8762 20.4554 24.3695C20.3949 24.3327 20.3408 24.289 20.3103 24.2636C20.1053 24.6716 19.8024 24.9876 19.3282 25.2104C18.2461 25.7186 17.0824 25.6254 16.1369 25.5497L16.125 25.5488C15.4498 25.4947 14.8525 25.3621 14.3168 25.0676C13.7755 24.77 13.3528 24.3379 12.9764 23.7744C12.9088 23.6731 12.8527 23.5552 12.8161 23.4771C12.8136 23.4718 12.8112 23.4666 12.8088 23.4615C12.5224 23.6137 12.2411 23.7329 11.9368 23.8165C11.5389 23.9259 11.1343 23.9656 10.6687 23.9656C10.6072 23.9656 10.5391 23.9665 10.4659 23.9673C10.1416 23.9712 9.71767 23.9763 9.32799 23.9166C8.83091 23.8404 8.24454 23.642 7.84014 23.0945C7.30063 22.3641 7.30126 21.6443 7.30179 21.0305C7.30181 21.0113 7.30182 20.9922 7.30182 20.9733C7.30182 19.9825 7.70027 19.0069 8.57995 18.4251C8.52352 18.3083 8.48578 18.1914 8.4596 18.087C8.41088 17.8925 8.38976 17.6904 8.38434 17.5037C8.37381 17.1404 8.4209 16.7491 8.51235 16.4627C8.83778 15.4437 9.80342 14.6957 10.6989 14.3999ZM13.316 23.1214C13.316 23.1215 13.3148 23.1224 13.3127 23.1239C13.315 23.1222 13.316 23.1214 13.316 23.1214ZM12.6102 23.0717C12.6074 23.0687 12.606 23.0669 12.606 23.0668C12.6061 23.0667 12.6075 23.0682 12.6102 23.0717ZM19.7866 23.8236C19.7866 23.8236 19.7873 23.824 19.7887 23.8248C19.7874 23.8241 19.7867 23.8237 19.7866 23.8236ZM19.0966 23.5612C19.0966 23.5611 19.097 23.5594 19.0978 23.5566C19.0969 23.56 19.0965 23.5614 19.0966 23.5612Z" fill="black"/>
  <path fill-rule="evenodd" clip-rule="evenodd" d="M18.3361 15.78C17.9539 15.9083 17.7518 16.0923 17.6653 16.3496C17.542 16.716 17.145 16.9131 16.7786 16.7898C16.4122 16.6665 16.2151 16.2696 16.3384 15.9031C16.6118 15.0904 17.2566 14.6657 17.8905 14.4528C18.5095 14.245 19.1953 14.209 19.7327 14.209C20.6407 14.209 21.6386 14.3354 22.3929 15.3145C22.568 15.5419 22.6445 15.7749 22.6778 15.9789C22.6883 15.9775 22.6991 15.976 22.7101 15.9744C22.7451 15.9694 22.7738 15.9651 22.8041 15.9605C22.8261 15.9572 22.8488 15.9538 22.8754 15.9499C22.9282 15.9421 22.9929 15.9331 23.0547 15.9277C24.1421 15.8342 25.2314 15.7714 26.3799 15.8864C26.9886 15.9473 27.9554 16.1024 28.5729 16.8059C28.7179 16.9711 28.8288 17.1844 28.9087 17.3761C28.9934 17.5792 29.0651 17.8111 29.111 18.0461C29.1551 18.2719 29.1807 18.5277 29.1565 18.7784C29.2338 18.7958 29.3101 18.8153 29.3803 18.8376C29.7164 18.944 30.0879 19.148 30.3394 19.5764C30.6715 20.1424 30.8244 20.8595 30.5873 21.4966C30.3233 22.2061 29.658 22.609 28.8022 22.609C28.4156 22.609 28.1022 22.2956 28.1022 21.909C28.1022 21.5224 28.4156 21.209 28.8022 21.209C29.0123 21.209 29.1238 21.1633 29.1767 21.1304C29.225 21.1004 29.2549 21.0629 29.2752 21.0084C29.3236 20.8782 29.3204 20.6062 29.132 20.285C29.1082 20.2446 29.0782 20.2104 28.9577 20.1723C28.8894 20.1506 28.8055 20.1326 28.6914 20.1129C28.6599 20.1074 28.62 20.101 28.5761 20.0938C28.4908 20.08 28.3904 20.0637 28.3065 20.0477C28.2254 20.0323 28.1274 20.0132 28.0451 19.9887C28.0049 19.9768 27.9312 19.9531 27.8528 19.9093C27.7819 19.8695 27.6175 19.7641 27.5269 19.5476C27.4245 19.3031 27.4823 19.0835 27.5368 18.9631C27.5847 18.8571 27.6481 18.7838 27.6725 18.7561C27.6979 18.7273 27.7324 18.6928 27.7603 18.6657C27.7611 18.6607 27.7618 18.655 27.7625 18.6486C27.7704 18.5741 27.7651 18.4587 27.7369 18.3143C27.7095 18.1738 27.6656 18.0325 27.6166 17.9149C27.5923 17.8566 27.5689 17.8094 27.5489 17.7742C27.5304 17.7419 27.5198 17.7286 27.5199 17.7285C27.5199 17.7285 27.5202 17.7288 27.5207 17.7294C27.2957 17.4731 26.8469 17.3401 26.2404 17.2794C25.2259 17.1778 24.2423 17.2307 23.1748 17.3226C23.1424 17.3254 23.1066 17.3308 23.0484 17.3396C23.0119 17.3452 22.9665 17.352 22.9077 17.3604C22.7829 17.3782 22.6138 17.3996 22.4433 17.4C22.2904 17.4004 22.0364 17.3863 21.7992 17.2577C21.6684 17.1868 21.5348 17.0766 21.4374 16.9136C21.3399 16.7505 21.3033 16.5757 21.3033 16.4138C21.3033 16.3493 21.303 16.3048 21.3012 16.2654C21.2994 16.2278 21.2965 16.206 21.294 16.193C21.2928 16.1869 21.2918 16.1832 21.2913 16.1813L21.2904 16.1787L21.2896 16.1771C21.2889 16.176 21.2872 16.1733 21.2838 16.1689C20.9386 15.7207 20.5151 15.609 19.7327 15.609C19.2329 15.609 18.7332 15.6467 18.3361 15.78ZM27.7541 18.6951C27.754 18.695 27.7544 18.6937 27.7553 18.6914C27.7546 18.694 27.7541 18.6952 27.7541 18.6951Z" fill="black"/>
  <path fill-rule="evenodd" clip-rule="evenodd" d="M3.96939 19.5654C5.65579 20.4482 7.33434 19.7144 8.53746 18.9135C8.85927 18.6992 8.94649 18.2647 8.73226 17.9429C8.51803 17.621 8.08348 17.5338 7.76167 17.7481C6.64801 18.4894 5.58146 18.829 4.61868 18.3251C4.08696 18.0467 3.62669 17.4755 3.54661 16.9367C3.52853 16.815 3.52821 16.5652 3.57195 16.3092C3.59303 16.1858 3.62095 16.0819 3.65084 16.0053C3.66933 15.9579 3.68341 15.9341 3.68834 15.9262C3.6899 15.9249 3.69169 15.9234 3.69368 15.9217C3.76685 15.8597 4.12166 15.5591 4.3179 15.2154C4.44073 15.0003 4.54645 14.7074 4.51122 14.3631C4.48054 14.0633 4.35003 13.793 4.14906 13.5576C4.02987 13.2012 4.10522 12.8026 4.42736 12.3932C4.78755 11.9354 5.4375 11.5067 6.31315 11.2816C6.94192 11.1199 7.79292 11.0238 8.55613 11.0318C8.93638 11.0359 9.27404 11.0656 9.5384 11.118C9.67009 11.1441 9.77251 11.1737 9.84747 11.2029C9.88322 11.2168 9.90807 11.2289 9.92434 11.2377C9.94269 11.261 9.96806 11.2929 9.99394 11.323C10.0275 11.3621 10.0957 11.4393 10.187 11.5063C10.2332 11.5402 10.3146 11.5936 10.4255 11.6287C10.5425 11.6656 10.7231 11.6907 10.9205 11.6142C11.1368 11.5304 11.2872 11.3806 11.3725 11.2846C11.4668 11.1784 11.547 11.0617 11.6087 10.9663C11.6517 10.9 11.697 10.8258 11.7339 10.7654C11.7484 10.7418 11.7615 10.7203 11.7727 10.7022C11.7955 10.6655 11.8134 10.6373 11.8283 10.6152C11.8415 10.5958 11.8479 10.5875 11.8486 10.5866C11.8488 10.5864 11.8487 10.5865 11.8484 10.5868C12.1939 10.1763 12.4913 9.95467 12.7942 9.83012C13.1004 9.70416 13.4754 9.65135 14.0202 9.68221C15.0013 9.73777 15.7562 9.80803 16.3687 10.2347C16.5326 10.3488 16.6115 10.4603 16.6667 10.716C16.6674 10.7249 16.669 10.7441 16.6713 10.7778L16.6716 10.7826C16.6756 10.8409 16.6813 10.9238 16.6899 11.0078C16.6983 11.0889 16.7121 11.1998 16.7383 11.3049C16.751 11.3558 16.7735 11.4344 16.8143 11.5169C16.8438 11.5766 16.9436 11.7677 17.1739 11.8766C17.4003 11.9836 17.6111 11.95 17.7006 11.9305C17.8068 11.9075 17.8985 11.8687 17.9628 11.8381C18.0934 11.776 18.2237 11.6923 18.3244 11.6242C18.4084 11.5673 18.4933 11.5063 18.5606 11.458C18.5765 11.4466 18.5914 11.4359 18.6051 11.4261C18.6611 11.3861 18.6871 11.3689 18.6932 11.3644C18.9268 11.2622 19.2734 11.2016 19.6668 11.2047C20.0692 11.2078 20.447 11.2769 20.7008 11.374C21.0619 11.5122 21.4666 11.3314 21.6047 10.9703C21.7429 10.6092 21.5621 10.2046 21.201 10.0664C20.7587 9.89723 20.209 9.80883 19.6777 9.8047C19.1507 9.80061 18.5674 9.87882 18.0802 10.1052C18.0386 10.1245 17.9994 10.1471 17.9679 10.1666C17.8318 9.73902 17.5907 9.37973 17.1689 9.08592C16.188 8.40269 15.036 8.33747 14.1144 8.2853L14.0993 8.28444C13.4334 8.24673 12.8291 8.30195 12.2616 8.53535C11.6907 8.77016 11.22 9.15925 10.7772 9.68543C10.6992 9.77817 10.6293 9.88952 10.5825 9.96511C10.5766 9.97466 10.5708 9.98395 10.5652 9.99302C10.3249 9.86767 10.0552 9.79322 9.81058 9.74474C9.43538 9.67038 9.00623 9.63652 8.57095 9.63191C7.70311 9.62272 6.72821 9.72933 5.96456 9.92566C4.85589 10.2107 3.9147 10.7806 3.32707 11.5275C2.73042 12.2859 2.48384 13.2634 2.90515 14.218L2.95832 14.3385L3.05165 14.4315C3.08416 14.4638 3.10223 14.4876 3.11192 14.5027C3.1095 14.5077 3.10631 14.5139 3.10213 14.5212C3.07364 14.5711 3.0223 14.634 2.94593 14.7086C2.90952 14.7442 2.87231 14.7778 2.8331 14.8126C2.828 14.8171 2.82231 14.8222 2.81619 14.8276C2.7846 14.8555 2.74156 14.8935 2.70815 14.9258C2.52753 15.1002 2.41688 15.3162 2.34655 15.4965C2.27314 15.6847 2.2241 15.8852 2.19194 16.0735C2.1292 16.4407 2.11732 16.843 2.16182 17.1424C2.32146 18.2167 3.13247 19.1273 3.96939 19.5654ZM3.1191 14.4845C3.11907 14.4845 3.11893 14.4849 3.11876 14.4859L3.1191 14.4845ZM3.12068 14.5183C3.12141 14.521 3.12202 14.5224 3.12215 14.5224C3.12227 14.5224 3.12191 14.521 3.12068 14.5183ZM11.0632 10.4189C11.0631 10.4188 11.0621 10.4176 11.06 10.4155C11.0622 10.4179 11.0632 10.419 11.0632 10.4189ZM10.3177 10.3635C10.3143 10.3665 10.3126 10.3682 10.3126 10.3684C10.3126 10.3686 10.3143 10.3671 10.3177 10.3635ZM17.3548 10.5768C17.3547 10.5769 17.3555 10.5766 17.3573 10.5758C17.3558 10.5764 17.355 10.5767 17.3548 10.5768ZM22.9404 15.3242C23.3231 15.3789 23.6778 15.1131 23.7325 14.7304C23.7353 14.7112 23.7442 14.669 23.7674 14.5715C23.7699 14.5607 23.7726 14.5494 23.7754 14.5377C23.7948 14.4568 23.819 14.3551 23.8423 14.2448C23.8956 13.9913 23.95 13.6629 23.948 13.3034C23.9438 12.5602 23.6923 11.6726 22.7578 11.0346C22.4385 10.8166 22.003 10.8987 21.785 11.218C21.567 11.5372 21.6491 11.9728 21.9684 12.1908C22.4264 12.5035 22.5457 12.8969 22.548 13.3112C22.5492 13.5304 22.5157 13.7499 22.4723 13.9565C22.4532 14.0469 22.4336 14.1293 22.4141 14.211C22.4112 14.2231 22.4083 14.2353 22.4054 14.2474L22.4053 14.248C22.3858 14.3297 22.3602 14.4374 22.3466 14.5321C22.2919 14.9148 22.5577 15.2694 22.9404 15.3242Z" fill="black"/>
</svg>