<svg xmlns="http://www.w3.org/2000/svg" width="32" height="33" viewBox="0 0 32 33" fill="none">
  <path fill-rule="evenodd" clip-rule="evenodd" d="M11.1587 16.0356C13.0346 15.2921 14.6506 16.4292 15.7383 17.5182C16.0115 17.7918 16.0112 18.235 15.7376 18.5082C15.4641 18.7814 15.0209 18.7811 14.7477 18.5076C13.7066 17.4652 12.6907 16.9344 11.6745 17.3371C11.11 17.5608 10.5295 18.1395 10.3538 18.7996C10.3122 18.9557 10.2744 19.2589 10.282 19.572C10.2857 19.7244 10.2998 19.8595 10.322 19.9659C10.341 20.0568 10.36 20.0981 10.3642 20.1071C10.3653 20.1096 10.3653 20.1096 10.3639 20.1076C10.3761 20.1251 10.3983 20.151 10.4567 20.2137C10.46 20.2172 10.4636 20.2211 10.4677 20.2254C10.5116 20.2722 10.6001 20.3664 10.6671 20.4679C10.7338 20.5689 10.9037 20.8601 10.7803 21.2227C10.6652 21.5605 10.3774 21.7076 10.2383 21.7671C9.59496 22.0426 9.19998 22.758 9.19998 23.7768C9.19998 24.5693 9.21214 24.9927 9.49747 25.4562C9.60949 25.6382 9.77439 25.7376 10.0589 25.79C10.3117 25.8365 10.5721 25.8334 10.8843 25.8297C10.9739 25.8287 11.0677 25.8276 11.1669 25.8276C11.5425 25.8276 11.802 25.7892 12.0301 25.7139C12.2498 25.6414 12.4758 25.5231 12.7715 25.3175C12.7728 25.3162 12.7741 25.3147 12.7755 25.3132C12.7971 25.2899 12.8347 25.2495 12.8728 25.2121C12.9109 25.1747 12.9897 25.0995 13.0914 25.0386C13.1425 25.008 13.2366 24.958 13.3622 24.9347C13.4991 24.9093 13.6996 24.9128 13.8942 25.0352C14.0974 25.163 14.2211 25.3495 14.288 25.4627C14.3638 25.5911 14.4253 25.7299 14.473 25.8458C14.5063 25.9264 14.5403 26.0148 14.5688 26.089C14.5803 26.1189 14.5908 26.1464 14.6001 26.1702C14.6182 26.2163 14.6331 26.2533 14.6461 26.2834C14.6525 26.2981 14.6577 26.3095 14.6618 26.3181L14.6666 26.3278C14.6678 26.3301 14.6684 26.3311 14.6684 26.3311C14.9673 26.8683 15.2449 27.1764 15.5377 27.3695C15.8287 27.5616 16.1959 27.6804 16.7459 27.7332C17.7505 27.8297 18.5112 27.8709 19.185 27.4911C19.3716 27.3859 19.4849 27.2573 19.5912 26.9315C19.5916 26.9277 19.5963 26.9055 19.6068 26.8508L19.6077 26.846C19.6203 26.7802 19.6376 26.6892 19.658 26.598C19.6777 26.5093 19.706 26.3943 19.7441 26.2894C19.7624 26.2388 19.7928 26.163 19.84 26.0859C19.869 26.0386 19.9902 25.8412 20.2453 25.7529C20.5091 25.6617 20.7346 25.7408 20.8239 25.778C20.9307 25.8225 21.0188 25.8822 21.0783 25.9264C21.2003 26.0172 21.3188 26.132 21.4103 26.225C21.4867 26.3027 21.5634 26.3851 21.6247 26.4511C21.6393 26.4667 21.653 26.4815 21.6656 26.495C21.7234 26.5568 21.7473 26.58 21.7494 26.5831C22.269 26.9532 22.9307 27.0895 23.6849 27.1569C24.6927 27.2469 25.7284 27.2392 26.778 27.216C27.2743 27.2051 27.5214 27.1386 27.7031 26.9352C27.7292 26.906 27.7766 26.8231 27.7934 26.5915C27.8013 26.4823 27.8011 26.3618 27.7978 26.223C27.797 26.1861 27.7958 26.1457 27.7945 26.1034C27.7915 26.0014 27.7882 25.8882 27.7882 25.7872C27.7882 25.4006 28.1016 25.0872 28.4882 25.0872C28.8748 25.0872 29.1882 25.4006 29.1882 25.7872C29.1882 25.8385 29.1901 25.9089 29.1924 25.9905C29.1982 26.1945 29.2059 26.4689 29.1897 26.6927C29.1649 27.0353 29.0807 27.4946 28.747 27.8681C28.145 28.5418 27.3537 28.6036 26.8089 28.6157C25.7542 28.6389 24.6516 28.6488 23.5604 28.5514C22.7418 28.4782 21.7489 28.3154 20.9046 27.6999C20.8749 27.6782 20.8468 27.6546 20.8225 27.6328C20.6329 28.0789 20.3468 28.4433 19.8724 28.7107C18.7669 29.3339 17.5717 29.219 16.628 29.1283L16.612 29.1268C15.9225 29.0605 15.3108 28.8971 14.7667 28.5381C14.2243 28.1803 13.8105 27.6687 13.4451 27.012C13.3843 26.9028 13.3327 26.7734 13.2961 26.6795C13.2927 26.6709 13.2894 26.6625 13.2862 26.6541C13.0213 26.8176 12.7561 26.9486 12.4687 27.0434C12.0582 27.1789 11.6413 27.2276 11.1669 27.2276C11.1081 27.2276 11.0421 27.2285 10.9705 27.2296C10.6466 27.2344 10.2075 27.2408 9.80556 27.1669C9.27396 27.069 8.69063 26.8162 8.30523 26.1901C7.79903 25.3677 7.79951 24.5739 7.79995 23.8414C7.79997 23.8198 7.79998 23.7982 7.79998 23.7768C7.79998 22.6431 8.18747 21.4682 9.14027 20.7869C9.04195 20.6083 8.98599 20.417 8.95154 20.2521C8.90733 20.0403 8.8875 19.8167 8.88241 19.6058C8.87242 19.1927 8.91765 18.7523 9.00087 18.4396C9.30311 17.3039 10.229 16.404 11.1587 16.0356ZM13.8626 26.2027C13.8626 26.2028 13.8614 26.2039 13.859 26.2059C13.8615 26.2036 13.8627 26.2026 13.8626 26.2027ZM13.0696 26.1541C13.0668 26.1508 13.0655 26.1488 13.0655 26.1487C13.0655 26.1486 13.0669 26.1502 13.0696 26.1541ZM20.236 27.045C20.2359 27.0449 20.2367 27.0454 20.2386 27.0468C20.237 27.0457 20.2361 27.0451 20.236 27.045Z" fill="black"/>
  <path fill-rule="evenodd" clip-rule="evenodd" d="M18.8623 17.3904C18.5058 17.5272 18.2757 17.7347 18.1715 18.0888C18.0623 18.4597 17.6732 18.6718 17.3023 18.5626C16.9314 18.4534 16.7193 18.0643 16.8285 17.6934C17.0843 16.8246 17.701 16.3365 18.3607 16.0833C18.9919 15.8411 19.6897 15.7998 20.2308 15.7998C20.6815 15.7998 21.1735 15.8341 21.6467 16.0168C22.1398 16.2073 22.5666 16.5405 22.917 17.0603C23.0945 17.3237 23.1615 17.5901 23.1866 17.8198C23.1892 17.8194 23.1918 17.819 23.1944 17.8186C23.2294 17.8129 23.2573 17.8081 23.2871 17.8029C23.3091 17.7991 23.332 17.7952 23.3594 17.7906C23.4123 17.7817 23.4795 17.7709 23.5444 17.7645C24.6331 17.6574 25.73 17.5849 26.8879 17.7174C27.5132 17.7889 28.4893 17.9738 29.1001 18.7691C29.2365 18.9467 29.3416 19.1769 29.4184 19.3874C29.4997 19.61 29.5683 19.8641 29.6121 20.1205C29.6554 20.3737 29.6787 20.6544 29.6537 20.9231C29.6509 20.9531 29.6474 20.9843 29.6429 21.0165C29.7336 21.0389 29.8237 21.0646 29.9053 21.0941C30.2602 21.2225 30.6207 21.4599 30.8565 21.9192C31.177 22.5432 31.3106 23.3042 31.095 23.9663C30.9837 24.308 30.7757 24.6282 30.4507 24.8595C30.1258 25.0906 29.7309 25.1998 29.3004 25.1998C28.9138 25.1998 28.6004 24.8864 28.6004 24.4998C28.6004 24.1132 28.9138 23.7998 29.3004 23.7998C29.4926 23.7998 29.5908 23.7531 29.639 23.7188C29.6871 23.6845 29.7323 23.6296 29.7638 23.5328C29.8338 23.3179 29.8113 22.9485 29.6111 22.5587C29.5718 22.4821 29.5307 22.4473 29.429 22.4105C29.3654 22.3875 29.2858 22.3677 29.1732 22.3455C29.1434 22.3397 29.1047 22.3325 29.0615 22.3245C28.9753 22.3085 28.8716 22.2892 28.7868 22.2707C28.7062 22.2532 28.6041 22.2306 28.5176 22.2012C28.4744 22.1866 28.3969 22.158 28.3157 22.106C28.2348 22.0542 28.0895 21.9403 28.0135 21.733C27.9329 21.5129 27.9771 21.3183 28.0218 21.2052C28.0623 21.103 28.1172 21.0295 28.1415 20.998C28.1722 20.9582 28.2173 20.9081 28.2464 20.8761C28.2502 20.8618 28.2558 20.8355 28.2597 20.7933C28.2699 20.6839 28.2622 20.5323 28.2321 20.3562C28.2026 20.1834 28.1557 20.0111 28.1032 19.8672C28.0771 19.7957 28.0515 19.7363 28.0288 19.6907C28.0175 19.6681 28.0079 19.6508 28.0004 19.6383C27.9934 19.6267 27.9897 19.6217 27.9897 19.6217L27.9898 19.6218C27.7581 19.3201 27.3187 19.1758 26.7287 19.1083C25.7237 18.9933 24.7477 19.0529 23.6814 19.1578C23.652 19.1607 23.6202 19.1662 23.5656 19.1757C23.5291 19.182 23.4825 19.1901 23.4196 19.2003C23.2942 19.2208 23.1195 19.2462 22.9417 19.2467C22.7805 19.2472 22.5104 19.2295 22.2623 19.0758C21.9535 18.8844 21.8015 18.5632 21.8015 18.2196C21.8015 17.9151 21.7842 17.8846 21.756 17.8427C21.5566 17.5469 21.3532 17.4043 21.1423 17.3228C20.9113 17.2336 20.6254 17.1998 20.2308 17.1998C19.7347 17.1998 19.2471 17.2427 18.8623 17.3904Z" fill="black"/>
  <path fill-rule="evenodd" clip-rule="evenodd" d="M14.2608 10.3648C13.0888 10.0894 11.7594 10.166 10.5967 10.5404C8.7972 11.1197 7.76584 12.809 7.3042 14.8865C7.07861 15.9017 7.2226 17.2661 7.69995 18.1437C7.90314 18.5173 8.2479 18.7546 8.77271 19.0077C8.87313 19.0561 8.98584 19.107 9.10639 19.1614C9.54678 19.3602 10.0919 19.6062 10.5258 19.953C10.8278 20.1944 10.8769 20.6349 10.6355 20.9369C10.3942 21.2389 9.95367 21.288 9.65169 21.0466C9.36809 20.8199 9.04819 20.6747 8.64548 20.4919C8.49721 20.4246 8.3377 20.3522 8.16465 20.2688C7.57912 19.9864 6.89236 19.5889 6.47011 18.8127C5.80936 17.5979 5.64915 15.8806 5.93754 14.5828C6.44603 12.2944 7.67798 10.0093 10.1677 9.20773C11.5537 8.76149 13.1424 8.66393 14.581 9.00188C18.0507 9.81695 20.2 13.0324 20.2 16.4784C20.2 16.865 19.8866 17.1784 19.5 17.1784C19.1134 17.1784 18.8 16.865 18.8 16.4784C18.8 13.5823 17.0055 11.0095 14.2608 10.3648Z" fill="black"/>
  <path fill-rule="evenodd" clip-rule="evenodd" d="M10.9606 14.7704C11.0058 14.7526 11.0498 14.7298 11.0919 14.7019C11.4141 14.4881 11.5019 14.0537 11.2882 13.7316L10.7049 14.1186C11.2882 13.7316 11.2854 13.7274 11.2826 13.7233L11.2768 13.715L11.2649 13.6986C11.2567 13.6877 11.2482 13.677 11.2393 13.6665C11.2214 13.6454 11.2023 13.6253 11.1819 13.6063C11.141 13.5682 11.0969 13.5363 11.0516 13.5104C10.961 13.4587 10.8731 13.4352 10.8027 13.4251C10.6718 13.4063 10.5674 13.429 10.5197 13.4414C10.4214 13.4669 10.3427 13.5095 10.3007 13.5332C10.203 13.5886 10.0677 13.6814 9.86298 13.8376C9.55565 14.0722 9.49665 14.5115 9.73118 14.8188C9.96572 15.1261 10.405 15.1851 10.7123 14.9506C10.8061 14.879 10.8731 14.8304 10.9198 14.798C10.9363 14.7866 10.9498 14.7775 10.9606 14.7704Z" fill="black"/>
  <path fill-rule="evenodd" clip-rule="evenodd" d="M14.2548 12.8442C14.6169 12.7088 15.0202 12.8926 15.1556 13.2547L15.2606 13.5354C15.3959 13.8976 15.2123 14.3012 14.8501 14.4366C14.488 14.5719 14.0847 14.3881 13.9493 14.026L13.8443 13.745C13.7089 13.3829 13.8927 12.9796 14.2548 12.8442Z" fill="black"/>
  <path fill-rule="evenodd" clip-rule="evenodd" d="M11.5 4.7998C11.8866 4.7998 12.2 5.11321 12.2 5.4998V6.4998C12.2 6.8864 11.8866 7.1998 11.5 7.1998C11.1134 7.1998 10.8 6.8864 10.8 6.4998V5.4998C10.8 5.11321 11.1134 4.7998 11.5 4.7998Z" fill="black"/>
  <path fill-rule="evenodd" clip-rule="evenodd" d="M1.00887 9.00107C1.28431 8.72979 1.72752 8.73318 1.99879 9.00862C2.1192 9.13089 2.2346 9.25171 2.34759 9.37C2.65968 9.69675 2.95332 10.0042 3.28306 10.2693C3.71752 10.6186 4.10761 10.7998 4.50005 10.7998C4.88665 10.7998 5.20005 11.1132 5.20005 11.4998C5.20005 11.8864 4.88665 12.1998 4.50005 12.1998C3.65023 12.1998 2.95399 11.8011 2.40585 11.3604C1.99739 11.032 1.61049 10.6265 1.28357 10.2839C1.18349 10.179 1.08904 10.0801 1.00131 9.99099C0.730038 9.71554 0.733421 9.27234 1.00887 9.00107Z" fill="black"/>
  <path fill-rule="evenodd" clip-rule="evenodd" d="M4.04475 18.0602C4.28753 18.3611 4.24044 18.8018 3.93958 19.0446C3.72605 19.2169 3.3201 19.5384 2.88894 19.7916C2.67455 19.9175 2.42701 20.0428 2.17465 20.12C1.93973 20.1919 1.58995 20.2568 1.24205 20.1189C0.882651 19.9764 0.706791 19.5696 0.849251 19.2102C0.98417 18.8698 1.35622 18.6941 1.70052 18.7974C1.71408 18.7951 1.73523 18.7904 1.76512 18.7812C1.87001 18.7492 2.01126 18.6835 2.17992 18.5844C2.51486 18.3877 2.85206 18.1232 3.06041 17.9551C3.36127 17.7123 3.80198 17.7594 4.04475 18.0602ZM1.68139 18.7998C1.6814 18.7998 1.68188 18.7998 1.6828 18.7998L1.68139 18.7998Z" fill="black"/>
  <path fill-rule="evenodd" clip-rule="evenodd" d="M21.0107 10.021C21.2751 10.3031 21.2609 10.7461 20.9788 11.0105C20.6366 11.3313 20.3224 11.635 20.0186 11.97C19.759 12.2564 19.3163 12.2781 19.0299 12.0184C18.7435 11.7587 18.7218 11.316 18.9815 11.0296C19.3241 10.6517 19.6715 10.317 20.0213 9.98913C20.3033 9.72472 20.7463 9.73901 21.0107 10.021Z" fill="black"/>
  <path fill-rule="evenodd" clip-rule="evenodd" d="M21.8 15.4998C21.8 15.1132 22.1134 14.7998 22.5 14.7998H25.5C25.8866 14.7998 26.2 15.1132 26.2 15.4998C26.2 15.8864 25.8866 16.1998 25.5 16.1998H22.5C22.1134 16.1998 21.8 15.8864 21.8 15.4998Z" fill="black"/>
</svg>