<svg xmlns="http://www.w3.org/2000/svg" width="32" height="32" viewBox="0 0 32 32" fill="none">
  <path fill-rule="evenodd" clip-rule="evenodd" d="M25.5223 6.15743C23.5146 5.38488 21.7231 6.29538 20.4309 7.28907C20.1294 7.5209 20.0806 7.9601 20.3219 8.27004C20.5632 8.57999 21.0032 8.64332 21.3047 8.41149C22.4989 7.49315 23.7636 6.9655 25.0588 7.46391C25.7651 7.7357 26.4072 8.34588 26.5838 8.9441C26.6238 9.07955 26.6606 9.35592 26.6467 9.64226C26.64 9.78045 26.6224 9.89866 26.598 9.98768C26.5781 10.0605 26.5603 10.0896 26.5586 10.0928C26.5436 10.1088 26.5159 10.1334 26.4527 10.1856C26.4489 10.1887 26.4446 10.1923 26.4399 10.1962C26.389 10.2379 26.2863 10.3221 26.207 10.4157C26.1389 10.496 25.8873 10.8157 26.0514 11.246C26.1867 11.6007 26.5125 11.743 26.6318 11.7922C27.4384 12.1243 27.8295 12.8422 27.8122 13.7359C27.7975 14.4911 27.7763 14.8579 27.458 15.2613C27.3244 15.4307 27.104 15.5365 26.7224 15.5749C26.4082 15.6065 26.0816 15.5861 25.7181 15.5634C25.6178 15.5571 25.5147 15.5507 25.4083 15.5451C24.9602 15.5217 24.6384 15.4665 24.3513 15.3722C24.075 15.2813 23.8011 15.1444 23.456 14.9234C23.4532 14.9207 23.4499 14.9175 23.4462 14.914C23.4217 14.8903 23.3802 14.8502 23.3381 14.813C23.2941 14.7742 23.2118 14.704 23.1096 14.6471C23.0576 14.6182 22.9716 14.5762 22.8615 14.5534C22.7475 14.5297 22.5741 14.5206 22.393 14.6051C22.1795 14.7047 22.0365 14.8673 21.9511 14.9801C21.8592 15.1017 21.7839 15.2343 21.7258 15.3443C21.6856 15.4207 21.6438 15.5054 21.6095 15.575C21.5959 15.6024 21.5835 15.6276 21.5729 15.6489C21.5515 15.6915 21.5343 15.7248 21.5196 15.7513C21.5042 15.779 21.497 15.7895 21.497 15.7894C21.1495 16.277 20.8233 16.5622 20.4631 16.7393C20.0971 16.9193 19.6397 17.0157 18.9815 17.0339C17.831 17.0657 16.8887 17.0645 16.0633 16.63C15.817 16.5003 15.6982 16.3619 15.5939 16.0791C15.5903 16.0628 15.5858 16.0411 15.5794 16.0103L15.5783 16.0051C15.5651 15.9415 15.5465 15.8514 15.5242 15.7606C15.5026 15.6726 15.4707 15.5541 15.4258 15.4439C15.4039 15.3901 15.3678 15.3103 15.312 15.2293C15.2677 15.1652 15.141 14.9953 14.9052 14.9146C14.6776 14.8367 14.4801 14.882 14.3901 14.9083C14.2851 14.939 14.194 14.9845 14.1271 15.022C13.9917 15.0978 13.8571 15.1975 13.7499 15.2813C13.6612 15.3506 13.5722 15.4244 13.5005 15.4837C13.4833 15.4979 13.4672 15.5113 13.4523 15.5236C13.3774 15.5854 13.3499 15.6054 13.3504 15.6062C13.3505 15.6063 13.3506 15.6063 13.3509 15.6062C12.7105 15.9519 11.9015 16.0456 11.015 16.0651C9.84168 16.0909 8.64073 16.0204 7.43387 15.9351C6.84038 15.8931 6.49346 15.8048 6.25777 15.5685C6.23291 15.5436 6.19014 15.4847 6.17694 15.2886C6.17044 15.192 6.17249 15.0832 6.1788 14.952C6.18039 14.9189 6.18244 14.8816 6.18462 14.8421C6.19004 14.7436 6.19624 14.6309 6.19817 14.5314C6.20567 14.1449 5.89878 13.8152 5.51271 13.795C5.12664 13.7748 4.80759 14.0717 4.80008 14.4583C4.79929 14.4991 4.79608 14.5596 4.79221 14.6322C4.78179 14.8282 4.76666 15.1127 4.78177 15.3372C4.80572 15.6931 4.90409 16.1612 5.28536 16.5433C5.93422 17.1937 6.77841 17.2906 7.38105 17.3332C8.59213 17.4189 9.84862 17.4938 11.0914 17.4664C12.0197 17.446 13.1207 17.352 14.0676 16.8328C14.1367 16.7949 14.1993 16.7473 14.2325 16.7216C14.2639 16.6974 14.2972 16.6705 14.3299 16.6438C14.5466 17.1664 14.8825 17.57 15.4452 17.8663C16.6522 18.5017 17.9677 18.4654 19.0621 18.4351L19.0658 18.435C19.8346 18.4137 20.5077 18.2988 21.1118 18.0016C21.7218 17.7016 22.2054 17.2438 22.6439 16.6287C22.7188 16.5235 22.7828 16.398 22.8268 16.31C22.8453 16.2732 22.8619 16.2396 22.8776 16.2075C22.8799 16.2028 22.8822 16.1982 22.8845 16.1936C23.2397 16.4104 23.582 16.58 23.9551 16.7026C24.3981 16.8483 24.8522 16.9172 25.3812 16.9449C25.4541 16.9487 25.534 16.9538 25.6193 16.9593C25.9922 16.9832 26.4676 17.0138 26.9071 16.9695C27.4663 16.9133 28.1126 16.7269 28.5657 16.1528C29.181 15.373 29.1959 14.5764 29.2091 13.8697C29.2095 13.8494 29.2099 13.8292 29.2103 13.8091C29.2324 12.6696 28.7851 11.5333 27.7654 10.8401C27.853 10.693 27.9095 10.5381 27.9474 10.3995C28.0053 10.1881 28.0333 9.96487 28.0435 9.75601C28.0632 9.34825 28.0184 8.908 27.9237 8.5872C27.5844 7.43784 26.5224 6.54225 25.5223 6.15743ZM27.1189 10.4948C27.1189 10.4948 27.1195 10.4951 27.121 10.4958C27.1196 10.4951 27.1189 10.4947 27.1189 10.4948ZM22.4211 15.8411C22.4211 15.8412 22.4219 15.8418 22.4234 15.8429C22.4218 15.8417 22.4211 15.8411 22.4211 15.8411ZM23.0891 15.8331C23.0913 15.831 23.0924 15.8297 23.0924 15.8297C23.0924 15.8296 23.0913 15.8306 23.0891 15.8331ZM15.5982 16.0979C15.5982 16.0979 15.5979 16.0965 15.5973 16.0941C15.5979 16.0968 15.5982 16.098 15.5982 16.0979Z" fill="black"/>
  <path fill-rule="evenodd" clip-rule="evenodd" d="M17.1266 7.1111C17.5808 7.29102 17.8465 7.5392 17.956 7.89665C18.0704 8.2699 18.4621 8.48943 18.8309 8.38699C19.1997 8.28454 19.406 7.89891 19.2917 7.52566C19.0103 6.60734 18.3133 6.09105 17.6034 5.80979C16.9099 5.53506 16.133 5.45205 15.5158 5.41976C14.4754 5.36534 13.3648 5.45567 12.5062 6.51633C12.2819 6.79337 12.2012 7.08505 12.1707 7.33366C12.1266 7.3264 12.0791 7.3176 12.0281 7.30752C12.0024 7.30244 11.9724 7.29625 11.94 7.28958C11.8428 7.26955 11.7242 7.24512 11.6371 7.23291C10.3866 7.05783 9.13914 6.9196 7.82136 6.98465C7.11651 7.01944 6.03682 7.14386 5.34028 7.89699C5.18164 8.06851 5.05522 8.29829 4.96117 8.51246C4.86221 8.73785 4.77695 8.99704 4.72054 9.26111C4.66494 9.52142 4.63138 9.81421 4.65557 10.0993C4.65802 10.1283 4.66117 10.1582 4.66515 10.1888C4.54504 10.2072 4.42363 10.2299 4.31416 10.2592C3.93875 10.3598 3.53329 10.5651 3.25351 11.0196C2.87041 11.642 2.69269 12.4325 2.93526 13.1455C3.06028 13.513 3.29483 13.8453 3.64404 14.0875C3.98902 14.3268 4.4077 14.4521 4.86978 14.4763C5.25585 14.4965 5.57491 14.1995 5.58241 13.813C5.58992 13.4265 5.28303 13.0967 4.89695 13.0765C4.64088 13.0632 4.49397 12.9989 4.41392 12.9434C4.3381 12.8908 4.28817 12.8232 4.25728 12.7324C4.18803 12.5288 4.21272 12.1695 4.45024 11.7836C4.49849 11.7052 4.56163 11.6556 4.71603 11.6142C4.80192 11.5912 4.90436 11.5745 5.03763 11.5581C5.07624 11.5534 5.12356 11.5481 5.17499 11.5423C5.27273 11.5313 5.38534 11.5187 5.48131 11.5052C5.57614 11.4918 5.68467 11.476 5.77442 11.4538C5.81848 11.4428 5.89552 11.4217 5.97685 11.3801C6.0516 11.3419 6.21688 11.2429 6.31041 11.0308C6.41519 10.7931 6.36333 10.5723 6.31173 10.4483C6.26612 10.3387 6.20404 10.2603 6.17855 10.2289C6.14375 10.1861 6.09231 10.1317 6.05965 10.0975C6.05631 10.0842 6.05185 10.0613 6.04887 10.0262C6.03997 9.92127 6.05086 9.77273 6.08835 9.59724C6.12504 9.4255 6.18153 9.25443 6.2441 9.11194C6.27514 9.04123 6.30545 8.98266 6.33229 8.93776C6.34557 8.91555 6.35695 8.89844 6.36595 8.88598C6.37516 8.87322 6.38008 8.86783 6.38006 8.86784C6.67695 8.54684 7.23639 8.41912 7.93572 8.3846C9.11741 8.32627 10.2579 8.44869 11.4883 8.62097C11.5286 8.62661 11.5741 8.63602 11.6444 8.65056C11.6864 8.65923 11.7372 8.66973 11.8009 8.68234C11.9436 8.71055 12.1326 8.74467 12.3221 8.75506C12.494 8.76449 12.7666 8.76201 13.0198 8.63708C13.1587 8.56852 13.2986 8.4596 13.4013 8.29569C13.5039 8.13206 13.545 7.9527 13.5483 7.78286C13.5514 7.62514 13.5555 7.55474 13.5668 7.50036C13.5741 7.46553 13.5825 7.44665 13.6035 7.42077C14.0453 6.87496 14.5794 6.77194 15.4886 6.8195C16.0675 6.84978 16.656 6.92465 17.1266 7.1111ZM6.06419 10.1124C6.06419 10.1124 6.06412 10.1122 6.06398 10.1119L6.06419 10.1124Z" fill="black"/>
  <path fill-rule="evenodd" clip-rule="evenodd" d="M8.2985 18.7445C8.64429 18.5716 9.06476 18.7117 9.23765 19.0575C9.39018 19.3626 9.49755 19.7022 9.58351 19.974C9.60281 20.0351 9.62102 20.0927 9.63843 20.1458C9.70514 20.3491 9.78881 20.5335 9.88882 20.7539C9.93418 20.8538 9.98291 20.9612 10.0349 21.0812C10.1868 21.4311 10.3496 21.8569 10.3888 22.337C10.4118 22.6187 10.4101 23.0408 10.2949 23.4377C10.1824 23.825 9.89686 24.3742 9.23345 24.512C8.85438 24.5908 8.45882 24.5231 8.14427 24.4204C7.82349 24.3156 7.49706 24.1452 7.24933 23.9262C6.62714 23.3764 6.71119 22.5984 6.75178 22.2226C6.75307 22.2107 6.75432 22.1991 6.75549 22.188C6.84899 21.3065 7.27174 20.6035 7.62549 20.0152C7.65091 19.9729 7.67597 19.9313 7.70053 19.8901C7.76662 19.7795 7.85842 19.6937 7.96374 19.6359C7.82577 19.3 7.96849 18.9095 8.2985 18.7445ZM8.5548 21.2022C8.33589 21.5975 8.1897 21.9395 8.14769 22.3357C8.12479 22.5515 8.11808 22.6788 8.13229 22.7749C8.14267 22.8452 8.15831 22.8612 8.17641 22.8772C8.25205 22.944 8.39915 23.0308 8.57884 23.0895C8.73098 23.1392 8.84692 23.1495 8.91254 23.1457C8.92259 23.1267 8.93645 23.0953 8.95041 23.0473C9.00013 22.8761 9.00904 22.642 8.99344 22.4509C8.97359 22.2077 8.88779 21.9545 8.75062 21.6384C8.71942 21.5665 8.68339 21.487 8.64496 21.4023C8.61592 21.3383 8.58551 21.2712 8.5548 21.2022Z" fill="black"/>
  <path fill-rule="evenodd" clip-rule="evenodd" d="M13.7931 21.8003C14.1797 21.8003 14.4931 22.1137 14.4931 22.5003C14.4931 22.5893 14.4964 22.6823 14.5026 22.7777C14.5425 22.8875 14.5551 23.0072 14.5365 23.1256C14.5735 23.4148 14.6321 23.7088 14.7035 23.9685C14.7265 24.0523 14.7519 24.1416 14.7785 24.2353C14.8834 24.6044 15.0074 25.0408 15.0833 25.4738C15.18 26.025 15.2172 26.656 15.0243 27.2763C14.8584 27.8095 14.5183 28.305 13.9652 28.5085C13.3898 28.7202 12.8038 28.5373 12.3352 28.1646C11.9986 27.8969 11.8101 27.4731 11.8012 27.0753C11.7687 25.6133 12.4109 24.3277 12.9621 23.224C13.0122 23.1237 13.0616 23.0248 13.1096 22.9275C13.0989 22.7823 13.0931 22.639 13.0931 22.5003C13.0931 22.1137 13.4065 21.8003 13.7931 21.8003ZM13.5902 25.1951C13.3442 25.8049 13.1868 26.3978 13.2008 27.0424C13.201 27.0431 13.2012 27.0445 13.2017 27.0467C13.203 27.0518 13.2052 27.0583 13.2083 27.0648C13.2104 27.0691 13.2124 27.0724 13.2138 27.0745C13.3167 27.155 13.3905 27.1835 13.43 27.1927C13.4648 27.2009 13.4779 27.196 13.4815 27.1947L13.4818 27.1946C13.4874 27.1925 13.5995 27.1431 13.6875 26.8604C13.7864 26.5424 13.7829 26.1634 13.7044 25.7155C13.6737 25.5407 13.6344 25.3683 13.5902 25.1951Z" fill="black"/>
  <path fill-rule="evenodd" clip-rule="evenodd" d="M21.2845 20.7462C21.0506 21.2237 20.7744 21.8125 20.5853 22.3934C20.2927 23.2921 20.0967 24.4798 20.7953 25.4323C21.0653 25.8006 21.4893 26.0206 21.9053 26.0752C22.3302 26.1309 22.8525 26.0216 23.2078 25.5817C23.4482 25.2841 23.5089 24.9497 23.5258 24.7078C23.5362 24.5588 23.53 24.3514 23.5262 24.2274C23.525 24.1865 23.5241 24.1546 23.5241 24.1369C23.5241 23.0032 23.2146 22.1259 22.8609 21.1974C22.8232 21.0986 22.7902 21.0059 22.7621 20.9173C22.8071 20.8247 22.8504 20.7342 22.8912 20.6459C23.0531 20.2949 22.8998 19.879 22.5488 19.7171C22.473 19.6821 22.3942 19.6618 22.3156 19.6551C22.2082 19.588 22.0814 19.5493 21.9455 19.5493C21.5589 19.5493 21.2455 19.8627 21.2455 20.2493C21.2455 20.4226 21.2598 20.5879 21.2845 20.7462ZM21.929 22.789C22.053 23.2298 22.1241 23.6537 22.1241 24.1369C22.1241 24.2072 22.1266 24.2865 22.1287 24.3514C22.1295 24.374 22.1301 24.3948 22.1306 24.4128C22.1329 24.4952 22.1329 24.5572 22.1292 24.6102C22.1265 24.6479 22.1225 24.673 22.119 24.6889C22.1108 24.6891 22.1003 24.6888 22.0874 24.6871C22.0536 24.6827 22.0161 24.6705 21.9826 24.6516C21.9489 24.6326 21.931 24.6136 21.9242 24.6044C21.6545 24.2366 21.6482 23.651 21.9165 22.8268C21.9206 22.8142 21.9248 22.8016 21.929 22.789ZM22.1121 24.712C22.1121 24.712 22.1122 24.7116 22.1126 24.711L22.1121 24.712Z" fill="black"/>
  <path fill-rule="evenodd" clip-rule="evenodd" d="M16.5526 9.5173C16.6783 9.85355 16.5076 10.228 16.1714 10.3538C15.9033 10.454 15.7843 10.5393 15.6326 10.6481C15.6238 10.6544 15.6149 10.6608 15.6058 10.6673C15.3958 10.8176 15.1549 10.9782 14.6914 11.121C14.3483 11.2267 13.9845 11.0342 13.8788 10.6911C13.7731 10.3481 13.9656 9.98428 14.3087 9.87859C14.5944 9.79056 14.7084 9.71091 14.8495 9.61001C14.8579 9.60401 14.8664 9.59793 14.8749 9.59177C15.0567 9.46143 15.2863 9.29677 15.7162 9.13606C16.0524 9.01035 16.4269 9.18104 16.5526 9.5173Z" fill="black"/>
  <path fill-rule="evenodd" clip-rule="evenodd" d="M19.9527 10.1494C20.1465 9.84714 20.5486 9.75923 20.8508 9.95298C21.1118 10.1203 21.3127 10.1758 21.5885 10.2519C21.6037 10.2561 21.6191 10.2603 21.6348 10.2647C21.9567 10.3539 22.3411 10.4708 22.7865 10.8172C23.0699 11.0376 23.1209 11.4459 22.9005 11.7293C22.6801 12.0127 22.2718 12.0637 21.9884 11.8433C21.7431 11.6526 21.5525 11.5909 21.2878 11.5175C21.2683 11.5121 21.2484 11.5067 21.2281 11.5011C20.948 11.4244 20.58 11.3236 20.1491 11.0474C19.8469 10.8536 19.759 10.4516 19.9527 10.1494Z" fill="black"/>
  <path fill-rule="evenodd" clip-rule="evenodd" d="M18.5175 13.5275C18.0776 13.5275 17.7266 13.789 17.5038 14.3065C17.3618 14.6363 16.9794 14.7885 16.6497 14.6465C16.32 14.5045 16.1678 14.1222 16.3097 13.7924C16.6728 12.9492 17.4115 12.2275 18.5175 12.2275C19.207 12.2275 19.6772 12.7001 19.926 12.9624C20.3454 13.4045 20.5433 13.9247 20.6968 14.3285C20.7226 14.3964 20.7472 14.461 20.7714 14.5214C20.9047 14.8548 20.7426 15.233 20.4092 15.3664C20.0759 15.4997 19.6977 15.3376 19.5643 15.0043C19.5279 14.9131 19.4951 14.8287 19.4645 14.7501C19.3083 14.3485 19.2104 14.0969 18.9829 13.8571C18.8643 13.732 18.7695 13.6452 18.6826 13.5892C18.6026 13.5376 18.553 13.5275 18.5175 13.5275Z" fill="black"/>
</svg>