
<svg xmlns="http://www.w3.org/2000/svg" width="32" height="33" viewBox="0 0 32 33" fill="none">
  <path fill-rule="evenodd" clip-rule="evenodd" d="M10.1957 7.90103C10.3916 7.63373 10.7671 7.57583 11.0343 7.77169C11.9085 8.41219 12.5383 9.42373 13.0654 10.3968C13.2446 10.7276 13.4112 11.0519 13.5726 11.3659C13.9103 12.0233 14.2248 12.6354 14.5824 13.1668C16.0029 15.2779 17.1979 17.4981 18.3656 19.7873C18.3933 19.8417 18.4211 19.8961 18.4489 19.9506C19.432 21.8769 20.453 23.8777 21.0219 26.1588C21.1021 26.4803 20.9065 26.806 20.5849 26.8861C20.2634 26.9663 19.9378 26.7707 19.8576 26.4492C19.3223 24.303 18.3562 22.4093 17.3575 20.4519C17.3372 20.4122 17.3169 20.3724 17.2966 20.3325C16.1348 18.0547 14.9659 15.8864 13.5868 13.8367C13.189 13.2455 12.8195 12.527 12.4639 11.8358C12.3105 11.5374 12.1596 11.2441 12.0103 10.9684C11.4876 10.0035 10.964 9.20782 10.3251 8.73964C10.0578 8.54378 9.99987 8.16832 10.1957 7.90103Z" fill="black"/>
  <path fill-rule="evenodd" clip-rule="evenodd" d="M21.4362 7.41214C21.6502 7.18606 21.6565 6.82962 21.4434 6.59584C21.2202 6.35095 20.8407 6.3334 20.5958 6.55664C20.5227 6.62327 20.4638 6.70798 20.4362 6.74787C20.3971 6.80427 20.3532 6.8726 20.3066 6.9476C20.2129 7.09841 20.0947 7.29841 19.9594 7.53117C19.832 7.75031 19.6803 8.01438 19.5146 8.3028C19.3374 8.61124 19.1442 8.94751 18.9476 9.28646C18.6434 9.81102 18.3186 10.3636 17.9927 10.9L12.5937 10.9L10.3422 16.5289L12.341 20.4825C12.253 20.6909 12.1732 20.8624 12.0963 21.0279C11.8544 21.5485 11.6404 22.0087 11.2848 23.3661C11.1489 23.7327 10.7457 24.9821 10.6639 25.2955C10.5803 25.6161 10.7724 25.9438 11.093 26.0275C11.4137 26.1111 11.7414 25.919 11.8251 25.5984C11.8976 25.3203 12.3109 24.041 12.4176 23.7632L12.4295 23.732L12.438 23.6996C12.7711 22.4232 12.9357 22.071 13.1617 21.5877C13.2239 21.4546 13.2908 21.3116 13.3671 21.1365L18.8337 22.1742L22.2075 15.4266L19.0594 11.4554C19.3803 10.9259 19.6951 10.3894 19.9856 9.88849C20.193 9.531 20.3828 9.20047 20.556 8.89892C20.7171 8.61845 20.8638 8.36304 20.9968 8.13432C21.1313 7.90303 21.2421 7.71581 21.3259 7.58085C21.3681 7.51297 21.4001 7.46377 21.4227 7.43109C21.4285 7.42278 21.4329 7.41656 21.4362 7.41214ZM17.24 12.1L13.4062 12.1L11.6577 16.4713L12.9849 19.0965C13.4655 18.1805 14.131 17.0404 14.7404 16.0253C15.1999 15.2597 15.6379 14.5485 15.9609 14.0288C16.1224 13.7689 16.2553 13.5567 16.3479 13.4093L16.4551 13.2391L16.4931 13.179C16.4931 13.1789 16.4931 13.1789 16.9999 13.5001L16.4931 13.179L16.5058 13.159L16.5199 13.1401C16.7446 12.8405 16.9879 12.4864 17.24 12.1ZM17.4944 13.8408C17.7742 13.4662 18.0769 13.0191 18.386 12.5377L20.7925 15.5733L18.1661 20.8261L13.8645 20.0095C14.3109 19.1182 15.0538 17.8347 15.7692 16.6429C16.2247 15.8842 16.6593 15.1784 16.9801 14.6622C17.1405 14.4042 17.2723 14.1937 17.3639 14.0478L17.4698 13.8797L17.4944 13.8408Z" fill="black"/>
  <path fill-rule="evenodd" clip-rule="evenodd" d="M26.5779 16.6404C24.7633 16.167 21.5677 16.0671 19.5872 16.3583C19.1844 16.4175 18.7819 16.4615 18.3923 16.504C18.3162 16.5123 18.2406 16.5206 18.1656 16.5289C17.7007 16.5803 17.2513 16.6344 16.8033 16.7161C16.0985 16.8447 15.3962 16.8196 14.7555 16.7857C14.682 16.7819 14.6094 16.7779 14.5376 16.7739C13.9633 16.7424 13.4418 16.7139 12.9271 16.7625C12.5504 16.7981 12.1689 16.839 11.7837 16.8804C9.68622 17.1056 7.48088 17.3423 5.35347 16.7873C5.03283 16.7037 4.84072 16.3759 4.92437 16.0553C5.00802 15.7346 5.33576 15.5425 5.6564 15.6262C7.55238 16.1208 9.50347 15.914 11.605 15.6913C12.0025 15.6491 12.4054 15.6064 12.8143 15.5678C13.4246 15.5101 14.0405 15.5444 14.6037 15.5757C14.6763 15.5797 14.748 15.5837 14.8187 15.5874C15.459 15.6212 16.0353 15.6364 16.588 15.5356C17.0802 15.4458 17.5652 15.388 18.0335 15.3362C18.1123 15.3275 18.1904 15.3189 18.2679 15.3105C18.6574 15.2679 19.034 15.2268 19.4126 15.1711C21.5236 14.8607 24.8845 14.9584 26.8809 15.4793C27.2015 15.5629 27.3936 15.8906 27.31 16.2113C27.2263 16.5319 26.8986 16.724 26.5779 16.6404Z" fill="black"/>
  <path fill-rule="evenodd" clip-rule="evenodd" d="M12.4967 5.40014C12.8281 5.39825 13.0982 5.66533 13.1001 5.9967C13.1023 6.37419 13.0155 7.24514 12.9131 8.06935C12.8107 8.8936 12.6806 9.76857 12.5807 10.1517L12.4637 10.6002L12.0001 10.6002C11.8867 10.6002 11.766 10.6007 11.64 10.6013C11.224 10.603 10.7501 10.6049 10.2899 10.59C9.6962 10.5708 9.0706 10.5228 8.57199 10.3927C8.25135 10.3091 8.05923 9.98136 8.14288 9.66072C8.22653 9.34008 8.55427 9.14796 8.87491 9.23161C9.23637 9.32591 9.7491 9.37193 10.3287 9.39067C10.7261 9.40352 11.129 9.40316 11.5095 9.40172C11.5758 9.01783 11.6528 8.48011 11.7222 7.92141C11.8267 7.08029 11.9018 6.28912 11.9002 6.00357C11.8983 5.6722 12.1653 5.40204 12.4967 5.40014Z" fill="black"/>
  <path fill-rule="evenodd" clip-rule="evenodd" d="M19.1514 5.91949C19.472 6.00307 19.6642 6.33077 19.5806 6.65143C19.5817 6.64745 19.5816 6.64829 19.5807 6.65493C19.5788 6.66945 19.5734 6.71169 19.5685 6.79206C19.5623 6.89414 19.5585 7.02778 19.5583 7.18447C19.5581 7.49768 19.5723 7.88472 19.6058 8.26513C19.6397 8.65025 19.6913 9.00573 19.7593 9.26587C19.7613 9.27334 19.7632 9.28065 19.7651 9.2878C20.0043 9.21337 20.3209 9.11592 20.6677 9.01208C21.4035 8.79174 22.3012 8.53464 22.8759 8.41308C23.2001 8.34451 23.5185 8.55173 23.587 8.87593C23.6556 9.20013 23.4484 9.51853 23.1242 9.58711C22.605 9.69693 21.7527 9.93983 21.012 10.1616C20.6456 10.2714 20.3128 10.374 20.0717 10.4492C19.9512 10.4868 19.8537 10.5175 19.7864 10.5387L19.7091 10.5632L19.6829 10.5715L19.4774 10.6372L19.2773 10.5572C19.0093 10.4501 18.8632 10.2251 18.7888 10.0852C18.7048 9.92686 18.6442 9.74494 18.5983 9.56945C18.5057 9.21504 18.4467 8.78347 18.4104 8.37027C18.3736 7.95236 18.358 7.52981 18.3583 7.1834C18.3585 7.01029 18.3626 6.85161 18.3707 6.71903C18.3779 6.60151 18.3903 6.46064 18.4194 6.34877C18.503 6.02811 18.8307 5.83592 19.1514 5.91949ZM19.8613 9.54316C19.8612 9.54341 19.8594 9.54101 19.8559 9.53518C19.8596 9.54 19.8614 9.54291 19.8613 9.54316Z" fill="black"/>
  <path fill-rule="evenodd" clip-rule="evenodd" d="M26.1975 13.312C26.437 13.5409 26.4456 13.9207 26.2167 14.1603C25.866 14.5271 25.5682 14.7918 25.2963 15.0334C25.2459 15.0781 25.1965 15.122 25.1477 15.1657C24.8442 15.4376 24.5489 15.7148 24.1808 16.1473C24.1887 16.1931 24.2163 16.2741 24.2832 16.3952C24.3526 16.5207 24.442 16.6504 24.5399 16.7882C24.5503 16.8029 24.5613 16.8182 24.5727 16.8341C24.6527 16.9461 24.7518 17.0849 24.816 17.2024C25.057 17.6438 25.1526 17.7263 25.3949 17.9352C25.517 18.0406 25.6764 18.1781 25.9105 18.4099C26.146 18.6431 26.1478 19.023 25.9147 19.2584C25.6815 19.4939 25.3016 19.4957 25.0661 19.2625C24.9321 19.1298 24.8107 19.0241 24.6956 18.9239C24.3789 18.6482 24.1106 18.4146 23.7627 17.7775C23.7358 17.7281 23.6839 17.6552 23.5894 17.5222C23.5805 17.5098 23.5713 17.4968 23.5617 17.4833C23.4634 17.3449 23.3385 17.1665 23.2331 16.976C23.1305 16.7903 23.0215 16.5503 22.9885 16.286C22.953 16.0014 23.0064 15.6775 23.2423 15.3986C23.6696 14.8933 24.0146 14.5697 24.3471 14.2718C24.4005 14.224 24.453 14.1773 24.5051 14.131C24.7754 13.8907 25.0348 13.6601 25.3491 13.3312C25.5781 13.0916 25.9579 13.083 26.1975 13.312Z" fill="black"/>
  <path fill-rule="evenodd" clip-rule="evenodd" d="M5.51179 13.9366C5.69664 13.6616 6.06943 13.5885 6.34446 13.7733L6.34678 13.7749L6.35242 13.7787L6.37295 13.7926C6.39054 13.8046 6.41566 13.8217 6.44653 13.843C6.50814 13.8855 6.59327 13.9449 6.68737 14.0126C6.86742 14.142 7.10856 14.3216 7.27212 14.4727C7.3642 14.5579 7.47142 14.6545 7.58759 14.7591C8.03207 15.1596 8.60748 15.678 8.96676 16.1228L9.14454 16.3429L9.08783 16.6201C9.00908 17.005 8.73307 17.2934 8.50734 17.486C8.26378 17.6937 7.96528 17.8828 7.68452 18.0477C7.52994 18.1385 7.35027 18.239 7.18443 18.3318C7.06816 18.3968 6.95868 18.4581 6.8694 18.5095C6.61344 18.657 6.45329 18.7624 6.37457 18.8351C6.13106 19.0598 5.75146 19.0446 5.52672 18.8011C5.30198 18.5576 5.31719 18.178 5.5607 17.9533C5.75136 17.7773 6.02404 17.6116 6.2704 17.4697C6.39645 17.3971 6.51289 17.3322 6.62808 17.2679C6.77396 17.1866 6.91785 17.1064 7.07677 17.013C7.34336 16.8564 7.56773 16.7102 7.72861 16.573C7.73507 16.5674 7.7413 16.562 7.74733 16.5568C7.47823 16.2777 7.14906 15.9806 6.83571 15.6978C6.70507 15.5799 6.57718 15.4645 6.45754 15.3539C6.35411 15.2583 6.16772 15.1169 5.98699 14.987C5.90069 14.9249 5.82212 14.8701 5.76512 14.8308C5.73669 14.8112 5.71379 14.7955 5.69817 14.7849L5.68046 14.7729L5.67615 14.77L5.6752 14.7693C5.67519 14.7693 5.67521 14.7694 5.6752 14.7693M5.51179 13.9366C5.32695 14.2116 5.4002 14.5845 5.6752 14.7693L5.51179 13.9366Z" fill="black"/>
  <path fill-rule="evenodd" clip-rule="evenodd" d="M11.7652 23.0956C11.6639 23.179 11.539 23.2818 11.4283 23.3548C11.3075 23.4344 11.1664 23.5336 11.0035 23.6481C10.9586 23.6797 10.9119 23.7125 10.8636 23.7463C10.6459 23.8988 10.402 24.0674 10.1553 24.2231C9.91031 24.3777 9.6488 24.5285 9.39495 24.6411C9.15414 24.7479 8.85764 24.8493 8.56073 24.8418C8.22947 24.8334 7.96774 24.558 7.97613 24.2267C7.98453 23.8955 8.25989 23.6337 8.59115 23.6421C8.61857 23.6428 8.71777 23.6287 8.90849 23.5441C9.08618 23.4653 9.29206 23.3489 9.51479 23.2083C9.73574 23.0689 9.95988 22.9143 10.175 22.7635C10.2181 22.7333 10.2613 22.703 10.3042 22.6728C10.4695 22.5566 10.6305 22.4434 10.7677 22.353C10.8174 22.3202 10.8921 22.26 11.0128 22.1607C11.0171 22.1572 11.0215 22.1536 11.0259 22.1499C11.1321 22.0626 11.2634 21.9545 11.3969 21.858C11.5307 21.7614 11.7042 21.6482 11.8917 21.5792C12.0687 21.5142 12.3961 21.4401 12.7086 21.6418C12.8373 21.7249 12.9224 21.8334 12.975 21.9127C13.031 21.9971 13.0753 22.087 13.1106 22.1699C13.1811 22.3354 13.237 22.5238 13.2805 22.7006C13.3676 23.0541 13.4242 23.4389 13.4406 23.672C13.4511 23.8215 13.5219 23.9514 13.6883 24.2266C13.6923 24.2333 13.6964 24.2401 13.7006 24.2471C13.8429 24.4819 14.0748 24.8647 14.0582 25.3538C14.047 25.685 13.7694 25.9443 13.4382 25.9331C13.107 25.9218 12.8476 25.6443 12.8589 25.3131C12.8622 25.2144 12.8228 25.1145 12.6613 24.8474C12.6531 24.8339 12.6445 24.8197 12.6356 24.805C12.4964 24.5767 12.2758 24.2147 12.2436 23.7561C12.2323 23.5956 12.187 23.2786 12.1154 22.9876C12.103 22.9374 12.0904 22.8903 12.0777 22.8467C11.9821 22.9172 11.883 22.9988 11.7762 23.0866L11.7751 23.0874C11.7719 23.0902 11.7685 23.0929 11.7652 23.0956ZM12.3137 22.7029C12.3136 22.703 12.3124 22.7034 12.31 22.704C12.3125 22.7032 12.3137 22.7029 12.3137 22.7029Z" fill="black"/>
  <path fill-rule="evenodd" clip-rule="evenodd" d="M19.8263 24.1115C20.2758 24.1387 20.5891 24.2662 21.0962 24.4726C21.1701 24.5027 21.2481 24.5345 21.3312 24.5678C21.3611 24.5798 21.452 24.6297 21.6019 24.7376C21.7407 24.8375 21.9 24.9652 22.0583 25.1033C22.3961 25.3982 22.6508 25.6726 22.7238 25.7936C22.8951 26.0773 23.264 26.1683 23.5476 25.997C23.8313 25.8257 23.9223 25.4569 23.751 25.1732C23.5718 24.8765 23.187 24.4957 22.8474 24.1993C22.667 24.0418 22.4781 23.8898 22.303 23.7637C22.1389 23.6456 21.9501 23.5231 21.7781 23.4541C21.7014 23.4233 21.6261 23.3924 21.5514 23.3617C20.9732 23.1242 20.4333 22.9024 19.6167 22.9061C19.3492 22.9073 19.1649 23.059 19.0904 23.1268C18.9971 23.2117 18.9191 23.3125 18.8576 23.4017C18.7322 23.5834 18.6116 23.8109 18.5081 24.0264C18.3014 24.4571 18.1166 24.9392 18.0557 25.1439C17.8575 25.8094 17.8131 25.9994 17.7467 26.284C17.7042 26.4666 17.6525 26.688 17.5453 27.0988C17.4617 27.4195 17.6538 27.7472 17.9744 27.8309C18.2951 27.9145 18.6228 27.7224 18.7064 27.4018C18.832 26.9206 18.8839 26.6953 18.924 26.5214C18.9815 26.272 19.0146 26.1283 19.2058 25.4863C19.2441 25.3576 19.4027 24.9358 19.59 24.5457C19.6755 24.3675 19.7573 24.2167 19.8263 24.1115Z" fill="black"/>
  <path d="M6 9.5C6 10.0523 5.55228 10.5 5 10.5C4.44772 10.5 4 10.0523 4 9.5C4 8.94772 4.44772 8.5 5 8.5C5.55228 8.5 6 8.94772 6 9.5Z" fill="black"/>
  <path d="M28 26.5C28 27.0523 27.5523 27.5 27 27.5C26.4477 27.5 26 27.0523 26 26.5C26 25.9477 26.4477 25.5 27 25.5C27.5523 25.5 28 25.9477 28 26.5Z" fill="black"/>
  <path d="M31 22.5C31 23.0523 30.5523 23.5 30 23.5C29.4477 23.5 29 23.0523 29 22.5C29 21.9477 29.4477 21.5 30 21.5C30.5523 21.5 31 21.9477 31 22.5Z" fill="black"/>
</svg>