<svg xmlns="http://www.w3.org/2000/svg" width="32" height="33" viewBox="0 0 32 33" fill="none">
  <path fill-rule="evenodd" clip-rule="evenodd" d="M14.3514 8.49951C14.3514 8.0853 14.6872 7.74951 15.1014 7.74951C15.4721 7.74951 15.8724 7.85658 16.1344 7.94006C16.1882 7.95721 16.2428 7.9745 16.2979 7.992C17.0036 8.21579 17.8127 8.47235 18.5505 8.88032C19.0624 9.16342 19.5668 9.57893 19.957 10.0104C20.0146 10.0742 20.0958 10.1365 20.2392 10.228C20.263 10.2431 20.2906 10.2603 20.321 10.2793C20.4444 10.3561 20.6146 10.4621 20.7633 10.5791C21.3464 11.0379 21.9018 11.5234 22.4256 12.1231L22.4349 12.1337C22.7787 12.5272 23.241 13.0564 23.409 13.82C23.6708 15.0105 23.4089 16.4967 23.1595 17.4857C22.961 18.2729 22.7222 19.1456 22.4215 19.9362C22.4078 19.9724 22.3936 20.0098 22.3791 20.0481C22.1599 20.6274 21.8538 21.4363 21.3925 22.0215L21.3826 22.034L21.3722 22.0461C19.4595 24.2709 17.0626 24.2481 15.7511 24.1162C15.6412 24.1052 15.5243 24.095 15.402 24.0844C14.8359 24.0351 14.1552 23.9759 13.5263 23.7738C12.4518 23.4284 11.5204 22.9016 10.7043 21.9754C10.2178 21.4231 9.74833 20.7804 9.37414 20.1147C8.33219 18.2609 8.36773 16.2081 8.81764 14.3135C8.83925 14.2225 8.86092 14.1294 8.88297 14.0348C8.97872 13.6236 9.08144 13.1826 9.21593 12.752C9.29245 12.507 9.40073 12.2988 9.48485 12.1415C9.4978 12.1173 9.51009 12.0944 9.52178 12.0726C9.59365 11.9388 9.6427 11.8475 9.68273 11.7479C9.76978 11.5313 9.89134 11.3409 9.99295 11.194C10.0446 11.1193 10.0972 11.0473 10.1425 10.9852L10.1435 10.984C10.1912 10.9187 10.2303 10.865 10.2653 10.8144C10.5011 10.4726 10.7586 10.1941 11.0433 9.93535C11.0723 9.909 11.115 9.86926 11.1666 9.82126C11.2872 9.70898 11.4564 9.55144 11.6129 9.41413C11.7303 9.31109 11.858 9.20352 11.9819 9.10996C12.0893 9.02881 12.2333 8.92751 12.3854 8.85818C12.8777 8.61739 13.5113 8.64583 13.9966 8.74287C14.1413 8.77182 14.2924 8.81076 14.4438 8.8605C14.3849 8.75341 14.3514 8.63037 14.3514 8.49951ZM15.2667 9.26575C15.3496 9.32521 15.4279 9.38965 15.5003 9.45929C15.7986 9.74661 15.8076 10.2214 15.5202 10.5198C15.2329 10.8181 14.7581 10.8271 14.4598 10.5397C14.3429 10.4272 14.0644 10.2861 13.7024 10.2138C13.5335 10.18 13.3753 10.1674 13.2465 10.1729C13.1828 10.1756 13.1326 10.1825 13.0958 10.1905C13.0618 10.1979 13.0465 10.2047 13.0449 10.2054C13.0447 10.2055 13.0447 10.2055 13.0449 10.2054L13.0244 10.2158L13.0033 10.225C13.0066 10.2235 13.0062 10.2238 13.0019 10.2264C12.9907 10.2332 12.9535 10.2559 12.886 10.3069C12.8034 10.3692 12.7064 10.4502 12.6023 10.5416C12.46 10.6664 12.3339 10.784 12.2221 10.8882C12.1612 10.945 12.1046 10.9978 12.0519 11.0456C11.8348 11.2429 11.6585 11.4365 11.4999 11.6663C11.4527 11.7346 11.4027 11.8031 11.3587 11.8634L11.3546 11.8689C11.3074 11.9335 11.2658 11.9906 11.2267 12.0472C11.146 12.1638 11.0992 12.2459 11.0745 12.3072C11.0007 12.491 10.9075 12.6635 10.8378 12.7926C10.8272 12.8124 10.817 12.8311 10.8076 12.8488C10.7282 12.9973 10.6789 13.0992 10.6477 13.1992C10.5314 13.5717 10.4441 13.9457 10.3492 14.3525C10.3258 14.4529 10.302 14.5552 10.2771 14.6601C9.87468 16.3545 9.89407 17.9783 10.6817 19.3797C10.9985 19.9433 11.4044 20.5009 11.8298 20.9838C12.4343 21.6699 13.1165 22.0665 13.9852 22.3457C14.4381 22.4913 14.9097 22.5334 15.4645 22.583C15.6044 22.5955 15.7497 22.6085 15.9012 22.6238C17.048 22.7391 18.7987 22.7282 20.2239 21.0809C20.5328 20.6827 20.7638 20.0753 21.0104 19.4268L21.0195 19.403C21.288 18.697 21.5097 17.8936 21.7051 17.1189C21.9472 16.1586 22.1254 14.9669 21.944 14.1422C21.8674 13.7939 21.6598 13.5264 21.296 13.1099C20.8556 12.6058 20.3781 12.1847 19.8357 11.7579C19.7576 11.6964 19.682 11.6492 19.5733 11.5813C19.5318 11.5553 19.4855 11.5264 19.4324 11.4925C19.2636 11.3848 19.042 11.235 18.8444 11.0165C18.5517 10.6928 18.1749 10.3867 17.8246 10.193C17.2226 9.86011 16.5491 9.64595 15.8125 9.41174C15.7682 9.39766 15.7237 9.38351 15.679 9.36925C15.5299 9.32175 15.3853 9.28537 15.2667 9.26575Z" fill="black"/>
  <path fill-rule="evenodd" clip-rule="evenodd" d="M11.2223 3.77548C11.6316 3.71216 12.0187 3.99204 12.0868 4.40061C12.1118 4.54996 12.1473 4.69983 12.1901 4.87901L12.1925 4.88881C12.2329 5.05775 12.2799 5.25445 12.3142 5.45984L12.5326 6.76966C12.5499 6.87314 12.562 6.97919 12.572 7.06617L12.5728 7.07286C12.5831 7.16332 12.5917 7.23819 12.6027 7.31046C12.6268 7.46715 12.6525 7.53207 12.6653 7.55424C12.8734 7.91423 12.7511 8.3709 12.3921 8.57424C12.0331 8.77758 11.5733 8.6506 11.3652 8.29061C11.2081 8.01888 11.1491 7.72771 11.1173 7.5203C11.1017 7.41878 11.0902 7.3179 11.0807 7.23489C11.0801 7.22959 11.0795 7.22436 11.0789 7.21921C11.0683 7.12692 11.0602 7.05846 11.0503 6.99897L10.8318 5.68915C10.8068 5.53959 10.7713 5.38959 10.7285 5.21045L10.726 5.20038C10.6857 5.03155 10.6387 4.83502 10.6045 4.62992C10.5363 4.22135 10.8129 3.8388 11.2223 3.77548Z" fill="black"/>
  <path fill-rule="evenodd" clip-rule="evenodd" d="M25.4418 5.8389C25.8125 6.02364 25.9541 6.4692 25.7581 6.83408C25.7581 6.83408 25.7517 6.84628 25.7416 6.88206C25.7304 6.92154 25.7208 6.96671 25.7051 7.04206C25.7037 7.04907 25.7021 7.05651 25.7005 7.06436C25.6743 7.19203 25.6261 7.42736 25.5063 7.65032L25.0163 8.56229C24.9757 8.63785 24.9314 8.70039 24.896 8.74679C24.8746 8.77472 24.8531 8.80111 24.8344 8.82354C24.9222 9.13821 24.7856 9.48695 24.481 9.66384C24.1179 9.87469 23.6534 9.76154 23.4436 9.4111C23.3296 9.22072 23.2565 9.00192 23.2639 8.76141C23.2712 8.52235 23.356 8.33105 23.4386 8.19575C23.5075 8.08297 23.5912 7.98543 23.6321 7.93776C23.6357 7.93356 23.6389 7.92975 23.6418 7.92634C23.6655 7.89861 23.6772 7.88382 23.6819 7.87799L24.1637 6.98131C24.1637 6.98132 24.1637 6.98132 24.1637 6.98131C24.164 6.98083 24.1703 6.96835 24.1803 6.93308C24.1915 6.89359 24.2012 6.84841 24.2168 6.77311C24.2183 6.76607 24.2198 6.75859 24.2214 6.75069C24.2476 6.62313 24.2958 6.38785 24.4155 6.16506C24.6116 5.80019 25.071 5.65416 25.4418 5.8389Z" fill="black"/>
  <path fill-rule="evenodd" clip-rule="evenodd" d="M2.59102 12.6774C2.33634 12.3515 1.86569 12.2932 1.5392 12.5475C1.2124 12.802 1.1538 13.2732 1.40831 13.6C1.51298 13.7344 1.62877 13.8326 1.71157 13.8983C1.77952 13.9522 1.80585 13.9714 1.82672 13.9867C1.84649 14.0011 1.86137 14.012 1.90207 14.0453C2.04426 14.162 2.18023 14.2908 2.34019 14.4423L2.3482 14.4499C2.50466 14.5981 2.68494 14.7686 2.88317 14.9277C3.11378 15.1128 3.33883 15.2889 3.55878 15.461C4.16812 15.9379 4.73833 16.3842 5.27916 16.905C5.57752 17.1923 6.05231 17.1834 6.33963 16.885C6.62696 16.5867 6.61801 16.1119 6.31965 15.8246C5.71848 15.2456 5.06087 14.7311 4.43402 14.2407C4.22554 14.0776 4.02047 13.9171 3.82201 13.7578C3.67872 13.6428 3.54078 13.5135 3.37979 13.361C3.37243 13.354 3.36501 13.347 3.35753 13.3399C3.20868 13.1988 3.03799 13.037 2.85343 12.8856C2.80852 12.8488 2.76471 12.8155 2.73066 12.7897C2.72566 12.7859 2.72089 12.7823 2.71631 12.7788C2.68661 12.7563 2.66512 12.7401 2.64407 12.7234C2.6037 12.6913 2.59171 12.6781 2.59102 12.6774Z" fill="black"/>
  <path fill-rule="evenodd" clip-rule="evenodd" d="M29.695 17.4868C29.9094 17.8345 29.7911 18.2909 29.4307 18.5063C29.1167 18.6939 28.7692 18.8786 28.4225 19.0359C27.8529 19.2944 27.2684 19.3822 26.794 19.4534C26.6921 19.4687 26.5953 19.4833 26.5047 19.4986C26.2756 19.5373 26.0623 19.584 25.8304 19.6347C25.6986 19.6635 25.5608 19.6937 25.4107 19.7244C25.3877 19.7291 25.3649 19.7335 25.3478 19.7367L25.3467 19.7369C25.3308 19.7399 25.3184 19.7422 25.3069 19.7445C25.0275 19.9586 24.6268 19.9626 24.3493 19.7344C24.0315 19.4731 23.9958 19.0062 24.2694 18.6916C24.4581 18.4747 24.6927 18.384 24.8292 18.3424C24.9382 18.3092 25.0757 18.284 25.1141 18.277C25.1192 18.2761 25.1225 18.2755 25.1239 18.2752C25.231 18.2532 25.3482 18.2277 25.4709 18.201C25.7275 18.145 26.0081 18.0839 26.2711 18.0394C26.4161 18.0149 26.5485 17.9944 26.6715 17.9754C27.1238 17.9056 27.4488 17.8554 27.802 17.695C28.0902 17.5643 28.3857 17.4075 28.6541 17.2472C29.0145 17.0318 29.4805 17.1391 29.695 17.4868Z" fill="black"/>
  <path fill-rule="evenodd" clip-rule="evenodd" d="M20.2463 23.8958C20.5797 23.6501 21.0492 23.7212 21.295 24.0546C21.3218 24.091 21.3485 24.1273 21.3751 24.1635C21.9879 24.9959 22.5751 25.7935 23.2907 26.2998C23.3062 26.3107 23.3216 26.3217 23.3371 26.3326C23.6906 26.5825 24.0473 26.8348 24.4109 27.1849C24.7093 27.4722 24.7182 27.947 24.4309 28.2454C24.1436 28.5438 23.6688 28.5527 23.3704 28.2654C23.0898 27.9952 22.8156 27.8011 22.4398 27.5352L22.4243 27.5243C21.5022 26.8719 20.7805 25.8886 20.2073 25.1076C20.1666 25.0522 20.1267 24.9977 20.0874 24.9445C19.8417 24.611 19.9128 24.1415 20.2463 23.8958Z" fill="black"/>
  <path fill-rule="evenodd" clip-rule="evenodd" d="M9.51892 23.9117C9.84356 24.169 9.89817 24.6407 9.64091 24.9654C9.32317 25.3663 8.95747 25.7694 8.52584 26.1197C8.35934 26.2548 8.17989 26.3807 8.02662 26.4882C7.99195 26.5126 7.95861 26.536 7.92707 26.5583C7.74294 26.6887 7.59668 26.7989 7.4737 26.9173C7.35724 27.0295 7.24978 27.1571 7.1294 27.3108C7.09601 27.3534 7.05909 27.4014 7.01985 27.4524C6.9307 27.5684 6.82957 27.7 6.73049 27.8192C6.46581 28.1378 5.99295 28.1816 5.67434 27.9169C5.35572 27.6522 5.312 27.1794 5.57668 26.8607C5.65814 26.7627 5.72818 26.6714 5.80675 26.5691C5.8503 26.5124 5.89648 26.4522 5.94867 26.3856C6.08393 26.213 6.24174 26.0213 6.4332 25.8369C6.64242 25.6354 6.86689 25.4711 7.06003 25.3343C7.10317 25.3037 7.14429 25.2748 7.18376 25.2471C7.33305 25.1422 7.45875 25.0539 7.5807 24.9549C7.89947 24.6962 8.18913 24.3822 8.4653 24.0337C8.72256 23.7091 9.19428 23.6545 9.51892 23.9117Z" fill="black"/>
  <path fill-rule="evenodd" clip-rule="evenodd" d="M12.9473 17.7401C12.9479 17.7437 12.9484 17.7473 12.949 17.751C12.9501 17.7582 12.9514 17.766 12.9526 17.7743C12.9742 17.9127 13.0177 18.1928 13.0794 18.3683L13.0854 18.3854L13.0922 18.4021C13.0997 18.4205 13.1091 18.4446 13.1204 18.4735C13.2047 18.6888 13.3946 19.1744 13.6858 19.6155C14.0004 20.092 14.5856 20.7498 15.4992 20.7498C16.9167 20.7498 17.7917 19.7416 18.0958 19.2187C18.1694 19.092 18.2217 18.9674 18.2548 18.8887C18.2611 18.8735 18.2668 18.8601 18.2717 18.8487C18.3052 18.7713 18.3464 18.6826 18.4331 18.5443C18.6529 18.1932 18.5465 17.7304 18.1954 17.5106C17.8443 17.2908 17.3815 17.3972 17.1617 17.7483C17.027 17.9634 16.9518 18.1218 16.8949 18.2534C16.879 18.2902 16.8668 18.3188 16.857 18.342C16.83 18.4055 16.8206 18.4277 16.7991 18.4646C16.6279 18.7591 16.1586 19.2498 15.4992 19.2498C15.3745 19.2498 15.1809 19.1576 14.9376 18.7891C14.7417 18.4922 14.613 18.1674 14.5226 17.9394C14.5125 17.9139 14.5029 17.8897 14.4938 17.8669C14.4909 17.8553 14.4829 17.8223 14.4714 17.761C14.4573 17.6859 14.4438 17.6013 14.431 17.5191C14.4298 17.5116 14.4286 17.5036 14.4273 17.4953C14.4173 17.4314 14.4043 17.3478 14.3928 17.2942L14.3926 17.2929C14.3899 17.2802 14.3796 17.2321 14.3603 17.1785C14.3576 17.1702 14.3179 17.0507 14.2193 16.937C14.1741 16.8849 13.9951 16.6907 13.6811 16.6784C13.3224 16.6643 13.1141 16.8914 13.0444 16.9872C12.9733 17.085 12.9438 17.1763 12.9341 17.2072C12.9212 17.2489 12.9144 17.2834 12.911 17.3028C12.9041 17.342 12.9016 17.3743 12.9006 17.3894C12.8983 17.4224 12.8981 17.453 12.8981 17.4723C12.8981 17.5666 12.9155 17.6569 12.9473 17.7401Z" fill="black"/>
  <path fill-rule="evenodd" clip-rule="evenodd" d="M14.3376 14.6247C13.9795 14.8439 13.512 14.7418 13.2933 14.3966L13.9416 13.9998C13.2933 14.3966 13.2934 14.3968 13.2933 14.3966L13.2926 14.3954L13.2917 14.3941L13.29 14.3913L13.2858 14.3846L13.2755 14.3672C13.2679 14.3542 13.2582 14.3369 13.2476 14.3165C13.2295 14.2815 13.1959 14.2125 13.1714 14.1259L13.1711 14.1248C13.1564 14.0727 13.0912 13.8416 13.2051 13.5817C13.2751 13.4221 13.4015 13.2797 13.5761 13.1904C13.7354 13.1089 13.8865 13.096 13.985 13.0983C14.4042 13.108 14.73 13.4471 14.7127 13.8559C14.7112 13.8912 14.7072 13.926 14.7009 13.9599C14.7103 14.2182 14.5802 14.4761 14.3376 14.6247Z" fill="black"/>
  <path fill-rule="evenodd" clip-rule="evenodd" d="M17.314 14.5049C17.3195 14.0955 17.6635 13.7619 18.0825 13.7597C18.4377 13.7578 18.6935 13.9139 18.8394 14.0393C18.9131 14.1026 18.9678 14.1651 19.0052 14.2132C19.0243 14.2378 19.0399 14.2599 19.0522 14.2783C19.0584 14.2875 19.0638 14.296 19.0684 14.3035L19.0749 14.314L19.0777 14.3187L19.0791 14.321L19.0797 14.322L19.08 14.3226C19.0802 14.3228 19.0803 14.3231 18.4277 14.6953L19.0803 14.3231C19.2865 14.6757 19.1581 15.1302 18.7934 15.3382C18.4832 15.5151 18.102 15.4567 17.8681 15.2185C17.5448 15.1361 17.3095 14.8484 17.314 14.5049Z" fill="black"/>
</svg>