<svg width="24" height="15" viewBox="0 0 24 15" fill="none" xmlns="http://www.w3.org/2000/svg">
<path d="M1 6C4.33404 6 7.66523 6 11 6" stroke="black" stroke-width="1.5" stroke-linecap="round"/>
<path d="M2.01245 11.3162L9.98744 10.684" stroke="black" stroke-width="1.5" stroke-linecap="round"/>
<path d="M13.8894 2.94621C16.4934 1.38855 21.0416 -0.795306 21.6795 3.56826C21.8721 4.88523 20.9184 5.22212 19.9584 5.80927C19.7311 5.94834 21.4059 6.30914 21.5807 6.35956C22.2371 6.54891 22.86 6.68601 22.9806 7.42025C23.2587 9.11285 20.4716 9.50938 19.2255 9.5496C17.9235 9.59164 18.3617 10.4721 18.3279 11.5514C18.2711 13.3686 16.8585 14.0156 15.0752 13.9997C13.9459 13.9897 13.3789 13.0509 13 12.1335" stroke="black" stroke-width="1.5" stroke-linecap="round"/>
</svg>
