<svg xmlns="http://www.w3.org/2000/svg" width="10" height="11" viewBox="0 0 10 11" fill="none">
  <path fill-rule="evenodd" clip-rule="evenodd" d="M0.5 1.55714C0.5 0.973298 0.973298 0.5 1.55714 0.5H8.42855C9.01239 0.5 9.48569 0.973298 9.48569 1.55714V8.95712C9.48569 9.54097 9.01239 10.0143 8.42855 10.0143H1.55714C0.973298 10.0143 0.5 9.54097 0.5 8.95712V1.55714ZM8.42855 1.55714H1.55714V8.95712H8.42855V1.55714Z" fill="#D9D9D9"/>
  <path fill-rule="evenodd" clip-rule="evenodd" d="M2.08578 6.84277V8.42848H3.67149V6.84277H2.08578Z" fill="#D9D9D9"/>
  <path fill-rule="evenodd" clip-rule="evenodd" d="M2.08578 4.72852V6.31423H3.67149V4.72852H2.08578Z" fill="#D9D9D9"/>
  <path fill-rule="evenodd" clip-rule="evenodd" d="M6.31421 2.61426V4.19997H7.89992V2.61426H6.31421Z" fill="#D9D9D9"/>
  <path fill-rule="evenodd" clip-rule="evenodd" d="M4.19999 6.84277V8.42848H5.7857V6.84277H4.19999Z" fill="#D9D9D9"/>
  <path fill-rule="evenodd" clip-rule="evenodd" d="M4.19999 4.72852V6.31423H5.7857V4.72852H4.19999Z" fill="#D9D9D9"/>
  <path fill-rule="evenodd" clip-rule="evenodd" d="M6.31421 6.84277V8.42848H7.89992V6.84277H6.31421Z" fill="#D9D9D9"/>
  <path fill-rule="evenodd" clip-rule="evenodd" d="M6.31421 4.72852V6.31423H7.89992V4.72852H6.31421Z" fill="#D9D9D9"/>
</svg>