<svg xmlns="http://www.w3.org/2000/svg" width="10" height="12" viewBox="0 0 10 12" fill="none">
  <path fill-rule="evenodd" clip-rule="evenodd" d="M4.75709 3.14259C4.17325 3.14259 3.69995 3.61589 3.69995 4.19973C3.69995 4.78357 4.17325 5.25687 4.75709 5.25687C5.34093 5.25687 5.81423 4.78357 5.81423 4.19973C5.81423 3.61589 5.34093 3.14259 4.75709 3.14259ZM2.64281 4.19973C2.64281 3.03205 3.5894 2.08545 4.75709 2.08545C5.92477 2.08545 6.87137 3.03205 6.87137 4.19973C6.87137 5.36742 5.92477 6.31401 4.75709 6.31401C3.5894 6.31401 2.64281 5.36742 2.64281 4.19973Z" fill="#D9D9D9"/>
  <path fill-rule="evenodd" clip-rule="evenodd" d="M4.75717 1.55714C3.30739 1.55714 2.11432 2.75887 2.11432 4.26342C2.11432 5.13199 2.54489 6.1396 3.12965 7.08847C3.69014 7.99795 4.34942 8.78575 4.75717 9.24033C5.16493 8.78575 5.82421 7.99795 6.3847 7.08847C6.96946 6.1396 7.40002 5.13199 7.40002 4.26342C7.40002 2.75887 6.20696 1.55714 4.75717 1.55714ZM1.05718 4.26342C1.05718 2.19486 2.70391 0.5 4.75717 0.5C6.81044 0.5 8.45717 2.19486 8.45717 4.26342C8.45717 5.433 7.89769 6.64835 7.28466 7.64309C6.6623 8.65298 5.9363 9.51178 5.5099 9.98423C5.10441 10.4335 4.40993 10.4335 4.00445 9.98423C3.57804 9.51178 2.85205 8.65298 2.22968 7.64309C1.61665 6.64835 1.05718 5.433 1.05718 4.26342Z" fill="#D9D9D9"/>
  <path fill-rule="evenodd" clip-rule="evenodd" d="M0 10.5427C0 10.2508 0.236649 10.0142 0.52857 10.0142H8.98569C9.27761 10.0142 9.51426 10.2508 9.51426 10.5427C9.51426 10.8347 9.27761 11.0713 8.98569 11.0713H0.52857C0.236649 11.0713 0 10.8347 0 10.5427Z" fill="#D9D9D9"/>
</svg>