<svg xmlns="http://www.w3.org/2000/svg" width="10" height="11" viewBox="0 0 10 11" fill="none">
  <path fill-rule="evenodd" clip-rule="evenodd" d="M5.04317 1.05714C3.87948 1.05714 2.97405 1.95663 2.97405 3.0204C2.97405 3.68466 3.32254 4.27963 3.8708 4.63825C4.05659 4.75979 4.14664 4.98447 4.0962 5.20068C4.04576 5.41689 3.86559 5.57853 3.6452 5.60531C2.4688 5.74822 1.55714 6.75122 1.55714 7.96636V9.51432H8.52921V7.96636C8.52921 6.75122 7.61754 5.74822 6.44114 5.60531C6.22075 5.57853 6.04057 5.41689 5.99014 5.20068C5.9397 4.98447 6.02974 4.75979 6.21554 4.63825C6.76379 4.27963 7.11228 3.68466 7.11228 3.0204C7.11228 1.95663 6.20685 1.05714 5.04317 1.05714ZM1.91691 3.0204C1.91691 1.33177 3.33752 0 5.04317 0C6.74881 0 8.16942 1.33177 8.16942 3.0204C8.16942 3.70075 7.93691 4.32531 7.54862 4.82713C8.74948 5.36266 9.58635 6.56653 9.58635 7.96636V10.0429C9.58635 10.3348 9.3497 10.5715 9.05778 10.5715H1.02857C0.736649 10.5715 0.5 10.3348 0.5 10.0429V7.96636C0.5 6.56654 1.33686 5.36267 2.53772 4.82714C2.14942 4.32532 1.91691 3.70076 1.91691 3.0204Z" fill="#D9D9D9"/>
</svg>