<svg xmlns="http://www.w3.org/2000/svg" width="11" height="11" viewBox="0 0 11 11" fill="none">
  <path fill-rule="evenodd" clip-rule="evenodd" d="M5.05 1.01C2.81877 1.01 1.01 2.81877 1.01 5.05C1.01 7.28123 2.81877 9.09 5.05 9.09C7.28123 9.09 9.09 7.28123 9.09 5.05C9.09 2.81877 7.28123 1.01 5.05 1.01ZM0 5.05C0 2.26096 2.26096 0 5.05 0C7.83904 0 10.1 2.26096 10.1 5.05C10.1 7.83904 7.83904 10.1 5.05 10.1C2.26096 10.1 0 7.83904 0 5.05Z" fill="#D9D9D9"/>
  <path fill-rule="evenodd" clip-rule="evenodd" d="M5.05001 1.51514C5.32891 1.51514 5.55501 1.74123 5.55501 2.02014V5.05014C5.55501 5.32904 5.32891 5.55514 5.05001 5.55514C4.77111 5.55514 4.54501 5.32904 4.54501 5.05014V2.02014C4.54501 1.74123 4.77111 1.51514 5.05001 1.51514Z" fill="#D9D9D9"/>
  <path fill-rule="evenodd" clip-rule="evenodd" d="M7.31963 3.91506C7.44435 4.16452 7.34324 4.46786 7.09378 4.59259L5.27578 5.50159C5.02632 5.62632 4.72298 5.52521 4.59825 5.27575C4.47352 5.02629 4.57464 4.72295 4.8241 4.59822L6.6421 3.68922C6.89156 3.56449 7.1949 3.66561 7.31963 3.91506Z" fill="#D9D9D9"/>
</svg>